<?xml version="1.0" encoding="UTF-8"?><svg id="b" xmlns="http://www.w3.org/2000/svg" viewBox="0 0 361.028012 70.8688571"><defs><style>.d{fill:#06c755;}.e{fill:#fff;}</style></defs><g id="c"><rect class="d" x="0" y=".0000002" width="361.028012" height="70.8688569" rx="35.434393" ry="35.434393"/><path class="e" d="M87.9351679,43.4023439v-18.7216797h3.6005859v15.5058594h8.4238281v3.2158203h-12.0244141Z"/><path class="e" d="M105.9615351,43.4023439v-18.7216797h3.6484375v18.7216797h-3.6484375Z"/><path class="e" d="M127.2183711,43.4023439l-5.5439453-10.8007812c-.5761719-1.2958984-1.3681641-3.3125-1.6083984-4.3925781h-.0722656c.1201172,1.1757812.4560547,4.3203125.4560547,6.5048828v8.6884766h-3.3837891v-18.7216797h4.2958984l5.5449219,10.7285156c.7675781,1.6083984,1.5839844,3.3125,1.7763672,4.296875l.0957031.0244141c-.2158203-1.2724609-.5039062-4.4648438-.5039062-6.0732422v-8.9765625h3.3603516v18.7216797h-4.4169922Z"/><path class="e" d="M139.0826289,43.4023439v-18.7216797h12.6494141v3h-9.0966797v4.6328125h7.8964844v2.9277344h-7.8964844v5.1611328h9.5527344v3h-13.1054688Z"/><path class="e" d="M165.7261836,36.1298829c0,.2402344.0234375.4794922.0712891.7197266.5039062,2.5927734,3.7685547,4.0566406,7.8730469,4.0566406.6240234,0,1.2724609-.0244141,1.9443359-.0957031l-.6005859,3.4082031h-.359375c-7.4169922,0-11.1611328-2.1601562-12.0498047-6.6972656-.0957031-.4316406-.1201172-.8876953-.1201172-1.2958984,0-3.3359375,2.4970703-6.1201172,5.1132812-7.2724609-3.0966797.1679688-6.6494141.4082031-9.6015625.6962891l-.3359375-3.3125c5.1611328,0,15.9619141-.6005859,19.4902344-1.0078125l.671875,3.1435547c-7.2724609.1201172-12.0966797,4.0810547-12.0966797,7.6572266ZM175.5425898,34.8095704c-.7441406-.8164062-1.65625-1.6796875-2.5205078-2.4003906l1.3447266-1.2236328c.8876953.6953125,1.7998047,1.4882812,2.5683594,2.3037109l-1.3925781,1.3203125ZM177.5591914,32.9853517c-.7207031-.7919922-1.5849609-1.5839844-2.5205078-2.328125l1.3203125-1.1523438c.9121094.671875,1.7753906,1.4404297,2.5673828,2.2080078l-1.3671875,1.2724609Z"/><path class="e" d="M201.5367304,40.0419923l-2.2558594-2.3759766s1.9443359-1.0322266,3.0244141-3.0244141h-5.1123047v5.3046875c0,4.4882812-.1679688,5.2558594-6.7929688,5.2558594l-1.2236328-3.2158203h3.2880859c1.65625,0,1.7519531-.1923828,1.7519531-1.6318359v-5.7128906h-9.3125v-2.8564453h11.4726562c-2.2558594-.6962891-5.7128906-1.6083984-7.8730469-2.1123047l2.4726562-2.0400391c1.5605469.3603516,3.9121094.9365234,5.328125,1.3925781,1.4882812-.7919922,3.0244141-1.8720703,3.0244141-1.8720703h-12.0966797v-2.9765625h16.6328125v2.0644531c-1.4160156,1.4160156-3.1914062,2.7119141-4.65625,3.7675781.5527344.1679688,1.0566406.3369141,1.7529297.6005859l-1.2724609,1.1757812h6.1679688v2.4248047c-1.6796875,4.0322266-4.3203125,5.8320312-4.3203125,5.8320312Z"/><path class="e" d="M214.2007929,44.2900392l-2.4960938-.7919922c.8876953-2.9277344,1.1035156-6,1.1035156-6l2.4003906.5039062s-.2402344,3.2880859-1.0078125,6.2880859ZM219.9849726,37.5937501s-.1201172-.6962891-.2880859-1.3916016c0,0-.5283203.1435547-1.1757812.2158203v8.7841797h-2.8808594v-8.5205078c-1.8476562.0957031-3.5283203.1201172-3.5283203.1201172l-.3115234-2.8085938s.8164062.0244141,1.9677734.0244141c.5527344-.5517578,1.1044922-1.2001953,1.5849609-1.8720703-.9609375-1.0566406-2.0644531-2.0400391-3.5527344-3.0966797l1.7041016-2.2802734c.3125.2402344.5996094.4804688.8398438.7441406.6484375-1.0800781,1.2001953-2.3037109,1.7519531-3.9121094l2.6884766,1.0322266c-.8876953,1.9443359-1.7519531,3.5039062-2.6396484,4.5839844.2636719.2402344.5039062.5039062.671875.7207031.8876953-1.2246094,1.7519531-3.0009766,1.7519531-3.0009766l2.4960938,1.3447266s-1.9199219,3.2880859-4.0322266,5.6884766c.6962891-.0244141,1.4638672-.1201172,2.0644531-.2158203-.0722656-.4082031-.1679688-.7441406-.3125-1.1044922l2.0400391-.8876953c.9599609,2.4482422,1.4160156,4.9921875,1.4160156,4.9921875l-2.2558594.8398438ZM220.0572383,43.8339845s-.2880859-2.6640625-1.0322266-5.4238281l2.3037109-.7207031c.8642578,2.6650391,1.3203125,5.3291016,1.3203125,5.3291016l-2.5917969.8154297ZM226.0338008,45.2021486l-1.2001953-3.1679688c4.6806641,0,4.8964844-.1923828,4.8964844-6.5761719v-6.8652344h-4.7529297c-.6953125,1.5126953-1.5839844,2.9521484-2.5917969,3.9365234l-1.7763672-2.6640625c1.5605469-1.8486328,2.4003906-3.8408203,2.8320312-6.2402344l2.9287109.4794922c-.0722656.5517578-.1923828,1.0566406-.3359375,1.6318359h6.7919922v7.5615234c0,9.5527344-.2636719,11.9042969-6.7919922,11.9042969ZM225.6978633,39.1298829c-.984375-3.1679688-2.6884766-6.2402344-2.6884766-6.2402344l2.4960938-1.3681641s1.7285156,3.0478516,2.9042969,6.1679688l-2.7119141,1.4404297Z"/><path class="e" d="M260.1353633,29.4335939c-2.5439453-.0722656-5.1357422-.0966797-7.7285156-.1201172v1.1035156c0,.984375.0244141,1.9443359.0478516,2.8808594.4082031.8398438.6484375,1.8955078.6484375,3.1201172v.1679688c-.1445312,5.3525391-2.9765625,7.6083984-7.296875,8.9765625l-2.0400391-2.9765625c3.0722656-.5996094,4.8720703-1.5839844,5.7607422-3.3115234-.6240234.1435547-1.1767578.2158203-1.6806641.2158203-2.8554688,0-4.0556641-2.1123047-4.0556641-4.2490234,0-1.7753906.8398438-3.5283203,2.2802734-4.1035156.8154297-.3125,1.6074219-.4804688,2.3515625-.4804688.3359375,0,.6484375.0244141.9599609.0957031-.0234375-.4560547-.0234375-.9355469-.0478516-1.4394531-3.4082031,0-6.8408203.0478516-10.2724609.1435547l-.0478516-2.9521484c3.3359375,0,6.7919922.0244141,10.2480469.0244141v-2.4970703l3.2167969.0488281c0,.8632812-.0244141,1.6318359-.0478516,2.4482422h1.4638672c2.1123047,0,4.2001953-.0244141,6.2880859-.0488281l-.0478516,2.953125ZM249.4546992,33.873047c-.0722656-.3115234-.6484375-.5751953-1.2724609-.5751953-.7919922,0-1.7041016.4560547-1.7041016,1.8476562v.1201172c.0244141.9365234.7685547,1.4882812,1.5126953,1.4882812.7919922,0,1.5595703-.6005859,1.5595703-1.96875,0-.2871094-.0234375-.5751953-.0957031-.9121094Z"/><path class="e" d="M274.7193476,44.5302736c-2.0878906,0-4.1035156-.4794922-5.4960938-1.4160156-.8876953-.5996094-1.3925781-1.7285156-1.3925781-2.8564453,0-1.5839844.984375-3.1923828,3.2890625-3.4082031.2158203-.0234375.4082031-.0234375.6240234-.0234375,2.9042969,0,5.2802734,2.015625,5.5683594,4.5595703,2.1123047-.671875,3.9365234-2.1357422,3.9365234-4.34375v-.1679688c-.0966797-1.8242188-2.0400391-2.8808594-4.7285156-2.8808594-3.0244141,0-7.0087891,1.3447266-10.3212891,4.4882812l-1.8242188-2.7841797c4.3203125-2.7597656,8.6171875-5.8564453,10.3691406-7.6083984-2.4482422.1923828-4.5126953.2880859-6.7441406.5039062l-.3847656-3.1679688c.4082031.0244141.8886719.0244141,1.3925781.0244141,3.2158203,0,7.9921875-.2646484,10.3203125-.6484375l1.96875,2.6884766c-1.2958984.6240234-5.9765625,3.8164062-6.984375,4.3681641.9121094-.2158203,2.015625-.3603516,3.1201172-.3603516,3.1923828,0,6.6005859,1.1767578,7.0087891,5.1123047.0234375.2402344.0478516.4804688.0478516.7207031,0,4.8720703-5.1123047,7.2001953-9.7695312,7.2001953ZM271.9117304,39.4423829h-.1445312c-.5517578.0234375-1.0078125.359375-1.0078125.7919922,0,.2158203.1435547.4794922.4804688.7441406.7197266.5517578,1.8242188.8398438,3.0722656.8398438h.1435547c-.2636719-1.3681641-1.0556641-2.3759766-2.5439453-2.3759766Z"/><polygon class="e" points="316.5140057 41.6007713 326.0469804 35.4344468 316.5140057 29.2680858 316.5140057 41.6007713"/><path class="e" d="M67.4630773,33.1987688c0-7.0798337-7.0974842-12.8397951-15.8218225-12.8397951-8.7237319,0-15.8219583,5.7599614-15.8219583,12.8397951,0,6.3469424,5.6287236,11.6626017,13.232205,12.6673368.5150397.1113697,1.2165042.3399021,1.3937145.7803483.159578.399814.1044091,1.0265312.051313,1.4304998,0,0-.1856645,1.1165484-.226007,1.3545758-.0689634.3996647-.3179522,1.5644123,1.3707328.8530138,1.6885492-.7116836,9.1115436-5.3654878,12.4310925-9.1858384h-.0007422c2.2928548-2.5147163,3.3914722-5.0666614,3.3914722-7.8999363"/><path class="d" d="M62.1994461,37.2867181h-4.4451488c-.1668373,0-.3020849-.1350937-.3020849-.3020849v-6.9049858c0-.1668373.1352476-.3020849.3020849-.3020849h4.4451488c.1660951,0,.3020849.1358359.3020849.3020849v1.1220336c0,.1668373-.1352476.3020849-.3020849.3020849h-3.0208764v1.1651912h3.0208764c.1660951,0,.3020849.1359989.3020849.302094v1.1221784c0,.1668373-.1352476.302094-.3020849.302094h-3.0208764v1.1651912h3.0208764c.1660951,0,.3020849.1358359.3020849.3019401v1.1221784c0,.1669912-.1352476.3020849-.3020849.3020849"/><path class="d" d="M45.7568533,37.2867181c.1668373,0,.3020849-.1350937.3020849-.3020849v-1.1221784c0-.1661042-.1359898-.3019401-.3020849-.3019401h-3.0210212v-5.4808673c0-.166249-.135845-.3020849-.3019401-.3020849h-1.1221875c-.1668373,0-.3020849.1352476-.3020849.3020849v6.9049858c0,.1669912.1352476.3020849.3020849.3020849h4.4451488Z"/><path class="d" d="M48.4327588,29.7774448h-1.1218888c-.1668373,0-.3022388.1354015-.3022388.302094v6.9051306c0,.1668373.1354015.302094.3022388.302094h1.1218888c.1669822,0,.3020849-.1352566.3020849-.302094v-6.9051306c0-.1666925-.1351028-.302094-.3020849-.302094"/><path class="d" d="M56.0715049,29.7774448h-1.1220427c-.1668373,0-.3020849.1354015-.3020849.302094v4.1012278l-3.1592287-4.2664359c-.0074222-.0109704-.0157225-.0213525-.0243214-.0311462-.0005974-.0007422-.0011857-.0014844-.001928-.0022176-.0057839-.0065261-.0118665-.0129074-.0182478-.0188362l-.00563-.0051956c-.0053404-.004743-.0106808-.0093412-.0163108-.0139393l-.0083093-.0060826c-.0050417-.0037021-.0103821-.0072593-.0160121-.0109704-.0029689-.001928-.0060826-.0037111-.0091963-.0054852-.0054852-.0032676-.0109795-.0063813-.0166095-.0091963-.0032676-.0016293-.0063813-.0032585-.0096399-.004743-.0057839-.0026702-.0117217-.0051956-.0176504-.0075671-.0032585-.0011857-.0065261-.0023715-.0097847-.0035572-.0060826-.0022267-.0121652-.0041546-.0183927-.0059287-.0035572-.0010409-.0071145-.001928-.0108256-.0028241-.0059287-.0013306-.0118665-.0026702-.0179401-.0038559-.0041546-.0007422-.0084541-.0013306-.0127536-.0020728-.0054943-.0005974-.0108256-.0013396-.0163199-.0017831-.0053313-.0005883-.0106717-.0007422-.0160121-.000887-.0035572-.0001448-.0069697-.0005974-.0105269-.0005974h-1.1158152c-.1668373,0-.3020849.1354015-.3020849.302094v6.9051306c0,.1668373.1352476.302094.3020849.302094h1.1220427c.1668373,0,.3020849-.1352566.3020849-.302094v-4.0998973l3.1632385,4.2717854c.021796.0308385.0484889.056056.0780059.0760779.0011857.0007332.0022176.0016293.0034124.0023715.0060736.0041456.0125997.0080015.018981.0115678.0029598.0016293.0057839.0034034.0088976.004743.004743.0026702.009486.0050417.0145277.0071145.0050417.0023715.0097937.0044533.0148354.0063813.0031137.0013306.0063723.0025163.009486.0035572.0068248.0023715.0137945.004743.020909.006671.0014844.0004526.0029689.0008961.0043085.0010409.0252084.006671.0516026.0106808.0790377.0106808h1.1158152c.1668373,0,.3020849-.1352566.3020849-.302094v-6.9051306c0-.1666925-.1352476-.302094-.3020849-.302094"/></g></svg>