<svg width="196" height="84" viewBox="0 0 196 84" fill="none" xmlns="http://www.w3.org/2000/svg">
<path d="M92.8789 48.2235L104.905 40.1567L92.8789 32.0898V48.2235Z" fill="#0C575E"/>
<path d="M45.2416 76.3097C43.6788 76.3097 42.2857 76.0223 41.062 75.4473C39.8458 74.8723 38.8801 74.0799 38.1651 73.07C37.4501 72.0602 37.0778 70.9029 37.0483 69.5982H41.6923C41.7439 70.4753 42.1124 71.1867 42.798 71.7322C43.4835 72.2776 44.298 72.5504 45.2416 72.5504C45.9934 72.5504 46.6569 72.3845 47.2318 72.0528C47.8141 71.7137 48.2675 71.2456 48.5918 70.6486C48.9235 70.0441 49.0894 69.3512 49.0894 68.5699C49.0894 67.7738 48.9198 67.0735 48.5808 66.469C48.2491 65.8646 47.7883 65.3928 47.1986 65.0537C46.6089 64.7147 45.9345 64.5414 45.1752 64.5341C44.5118 64.5341 43.8668 64.6704 43.2402 64.9432C42.6211 65.2159 42.1382 65.5882 41.7918 66.0599L37.5348 65.297L38.6074 53.3555H52.4507V57.2696H42.5547L41.9687 62.9419H42.1014C42.4994 62.3816 43.1002 61.9173 43.9037 61.5487C44.7071 61.1801 45.6064 60.9958 46.6016 60.9958C47.9653 60.9958 49.1815 61.3165 50.2504 61.9578C51.3192 62.5991 52.1632 63.48 52.7824 64.6004C53.4016 65.7135 53.7075 66.9961 53.7001 68.4482C53.7075 69.9741 53.3537 71.3304 52.6387 72.5172C51.931 73.6966 50.9396 74.6254 49.6643 75.3036C48.3965 75.9743 46.9222 76.3097 45.2416 76.3097Z" fill="#0C575E"/>
<path d="M30.6766 76.2877C29.9469 76.2877 29.3203 76.0297 28.7969 75.5137C28.2809 74.9903 28.0229 74.3638 28.0229 73.634C28.0229 72.9116 28.2809 72.2924 28.7969 71.7764C29.3203 71.2604 29.9469 71.0024 30.6766 71.0024C31.3843 71.0024 32.0035 71.2604 32.5342 71.7764C33.0649 72.2924 33.3303 72.9116 33.3303 73.634C33.3303 74.1205 33.205 74.5665 32.9544 74.9719C32.7111 75.3699 32.3905 75.6906 31.9924 75.9339C31.5944 76.1697 31.1558 76.2877 30.6766 76.2877Z" fill="#0C575E"/>
<path d="M23.7135 53.3555V76.0001H18.9258V57.8999H18.7931L13.6074 61.1506V56.9048L19.2133 53.3555H23.7135Z" fill="#0C575E"/>
<path d="M7.49717 73.8908H10.6498V75.1719H2.74039V73.8908H6.12695V71.1169H3.95465V70.4262C3.30853 72.1307 2.38391 73.6791 1.10281 74.8377C0.902287 74.5369 0.501247 74.0467 0.233887 73.7794C1.79349 72.4314 2.72925 70.3371 3.30853 68.1425H0.679487V66.8614H3.59817C3.73185 66.2376 3.83211 65.6138 3.92123 65.0122L5.30259 65.1793C5.20233 65.7363 5.10207 66.3044 4.97953 66.8614H10.4715V68.1425H4.67875C4.52279 68.7107 4.36683 69.29 4.16631 69.847H10.2487V71.1169H7.49717V73.8908Z" fill="#0C575E"/>
<path d="M135.497 73.8908H138.65V75.1719H130.74V73.8908H134.127V71.1169H131.955V70.4262C131.309 72.1307 130.384 73.6791 129.103 74.8377C128.902 74.5369 128.501 74.0467 128.234 73.7794C129.793 72.4314 130.729 70.3371 131.309 68.1425H128.679V66.8614H131.598C131.732 66.2376 131.832 65.6138 131.921 65.0122L133.303 65.1793C133.202 65.7363 133.102 66.3044 132.98 66.8614H138.472V68.1425H132.679C132.523 68.7107 132.367 69.29 132.166 69.847H138.249V71.1169H135.497V73.8908Z" fill="#0C575E"/>
<path d="M67.3031 0H0V16.7064H67.3031V0Z" fill="#0C575E"/>
<path d="M48.8673 12.6545C48.194 12.6545 47.6144 12.5182 47.1286 12.2454C46.6457 11.9699 46.2735 11.5807 46.0122 11.0778C45.7508 10.5721 45.6201 9.97412 45.6201 9.28378C45.6201 8.61048 45.7508 8.01958 46.0122 7.51105C46.2735 7.00253 46.6414 6.60622 47.1159 6.32213C47.5931 6.03804 48.1528 5.896 48.7948 5.896C49.2267 5.896 49.6286 5.9656 50.0008 6.1048C50.3758 6.24117 50.7025 6.44713 50.9809 6.7227C51.2622 6.99827 51.4809 7.34486 51.6372 7.76247C51.7934 8.17725 51.8715 8.66304 51.8715 9.21986V9.71844H46.3445V8.59344H50.1627C50.1627 8.33208 50.1059 8.10054 49.9923 7.89884C49.8786 7.69713 49.721 7.53946 49.5193 7.42583C49.3204 7.30935 49.0889 7.25111 48.8247 7.25111C48.5491 7.25111 48.3048 7.31503 48.0917 7.44287C47.8815 7.56787 47.7167 7.7369 47.5974 7.94997C47.4781 8.1602 47.417 8.39458 47.4142 8.6531V9.7227C47.4142 10.0466 47.4738 10.3264 47.5931 10.5622C47.7153 10.798 47.8872 10.9798 48.1088 11.1076C48.3303 11.2355 48.5931 11.2994 48.8971 11.2994C49.0988 11.2994 49.2835 11.271 49.4511 11.2142C49.6187 11.1574 49.7622 11.0721 49.8815 10.9585C50.0008 10.8449 50.0917 10.7057 50.1542 10.5409L51.8332 10.6517C51.748 11.0551 51.5732 11.4074 51.309 11.7085C51.0477 12.0068 50.7096 12.2397 50.2948 12.4074C49.8829 12.5721 49.407 12.6545 48.8673 12.6545Z" fill="white"/>
<path d="M41.2788 12.5264V5.98096H43.0388V7.123H43.1069C43.2263 6.71675 43.4265 6.40993 43.7078 6.20255C43.989 5.99232 44.3129 5.88721 44.6794 5.88721C44.7703 5.88721 44.8683 5.89289 44.9734 5.90425C45.0785 5.91562 45.1709 5.93124 45.2504 5.95113V7.56192C45.1652 7.53635 45.0473 7.51363 44.8967 7.49374C44.7461 7.47386 44.6084 7.46391 44.4834 7.46391C44.2163 7.46391 43.9777 7.52215 43.7674 7.63863C43.5601 7.75226 43.3953 7.91136 43.2731 8.1159C43.1538 8.32045 43.0941 8.55624 43.0941 8.82329V12.5264H41.2788Z" fill="white"/>
<path d="M36.8769 12.6545C36.2149 12.6545 35.6425 12.5139 35.1595 12.2326C34.6794 11.9486 34.3087 11.5537 34.0473 11.048C33.786 10.5395 33.6553 9.94997 33.6553 9.27952C33.6553 8.60338 33.786 8.01247 34.0473 7.50679C34.3087 6.99827 34.6794 6.60338 35.1595 6.32213C35.6425 6.03804 36.2149 5.896 36.8769 5.896C37.5388 5.896 38.1098 6.03804 38.5899 6.32213C39.0729 6.60338 39.445 6.99827 39.7064 7.50679C39.9678 8.01247 40.0985 8.60338 40.0985 9.27952C40.0985 9.94997 39.9678 10.5395 39.7064 11.048C39.445 11.5537 39.0729 11.9486 38.5899 12.2326C38.1098 12.5139 37.5388 12.6545 36.8769 12.6545ZM36.8854 11.2483C37.1865 11.2483 37.4379 11.163 37.6396 10.9926C37.8414 10.8193 37.9933 10.5835 38.0956 10.2852C38.2007 9.98691 38.2533 9.64742 38.2533 9.26674C38.2533 8.88605 38.2007 8.54656 38.0956 8.24827C37.9933 7.94997 37.8414 7.71418 37.6396 7.54088C37.4379 7.36759 37.1865 7.28094 36.8854 7.28094C36.5814 7.28094 36.3257 7.36759 36.1183 7.54088C35.9138 7.71418 35.759 7.94997 35.6539 8.24827C35.5516 8.54656 35.5004 8.88605 35.5004 9.26674C35.5004 9.64742 35.5516 9.98691 35.6539 10.2852C35.759 10.5835 35.9138 10.8193 36.1183 10.9926C36.3257 11.163 36.5814 11.2483 36.8854 11.2483Z" fill="white"/>
<path d="M33.0447 5.98105V7.34468H29.0049V5.98105H33.0447ZM29.9296 12.5265V5.50803C29.9296 5.0336 30.0219 4.64014 30.2066 4.32764C30.3941 4.01514 30.6498 3.78076 30.9736 3.62451C31.2975 3.46826 31.6654 3.39014 32.0773 3.39014C32.3557 3.39014 32.61 3.41144 32.8401 3.45406C33.0731 3.49667 33.2464 3.53502 33.36 3.56911L33.0361 4.93275C32.9651 4.91002 32.877 4.88872 32.7719 4.86883C32.6697 4.84894 32.5645 4.839 32.4566 4.839C32.1895 4.839 32.0035 4.9015 31.8983 5.0265C31.7932 5.14866 31.7407 5.32053 31.7407 5.54213V12.5265H29.9296Z" fill="white"/>
<path d="M25.336 12.6545C24.6627 12.6545 24.0832 12.5182 23.5974 12.2454C23.1144 11.9699 22.7423 11.5807 22.4809 11.0778C22.2195 10.5721 22.0889 9.97412 22.0889 9.28378C22.0889 8.61048 22.2195 8.01958 22.4809 7.51105C22.7423 7.00253 23.1102 6.60622 23.5846 6.32213C24.0619 6.03804 24.6215 5.896 25.2636 5.896C25.6954 5.896 26.0974 5.9656 26.4695 6.1048C26.8445 6.24117 27.1713 6.44713 27.4497 6.7227C27.7309 6.99827 27.9497 7.34486 28.1059 7.76247C28.2622 8.17725 28.3403 8.66304 28.3403 9.21986V9.71844H22.8133V8.59344H26.6315C26.6315 8.33208 26.5747 8.10054 26.461 7.89884C26.3474 7.69713 26.1897 7.53946 25.988 7.42583C25.7892 7.30935 25.5576 7.25111 25.2934 7.25111C25.0178 7.25111 24.7735 7.31503 24.5605 7.44287C24.3502 7.56787 24.1855 7.7369 24.0661 7.94997C23.9468 8.1602 23.8857 8.39458 23.8829 8.6531V9.7227C23.8829 10.0466 23.9426 10.3264 24.0619 10.5622C24.184 10.798 24.3559 10.9798 24.5775 11.1076C24.7991 11.2355 25.0619 11.2994 25.3659 11.2994C25.5676 11.2994 25.7522 11.271 25.9198 11.2142C26.0874 11.1574 26.2309 11.0721 26.3502 10.9585C26.4695 10.8449 26.5605 10.7057 26.623 10.5409L28.3019 10.6517C28.2167 11.0551 28.042 11.4074 27.7778 11.7085C27.5164 12.0068 27.1784 12.2397 26.7636 12.4074C26.3517 12.5721 25.8758 12.6545 25.336 12.6545Z" fill="white"/>
<path d="M14.7583 12.5266V3.79932H16.5736V7.08057H16.629C16.7086 6.90443 16.8236 6.72545 16.9742 6.54363C17.1276 6.35898 17.3265 6.20557 17.5708 6.08341C17.818 5.95841 18.1248 5.89591 18.4913 5.89591C18.9685 5.89591 19.4089 6.02091 19.8123 6.27091C20.2157 6.51807 20.5381 6.89165 20.7796 7.39165C21.0211 7.88881 21.1418 8.51238 21.1418 9.26238C21.1418 9.9925 21.0239 10.609 20.7881 11.1118C20.5552 11.6118 20.237 11.9911 19.8336 12.2496C19.433 12.5053 18.9842 12.6331 18.487 12.6331C18.1347 12.6331 17.835 12.5749 17.5878 12.4584C17.3435 12.3419 17.1432 12.1956 16.987 12.0195C16.8307 11.8405 16.7114 11.6601 16.629 11.4783H16.5481V12.5266H14.7583ZM16.5353 9.25386C16.5353 9.64307 16.5893 9.98256 16.6972 10.2723C16.8052 10.5621 16.9614 10.788 17.166 10.9499C17.3705 11.109 17.6191 11.1885 17.9117 11.1885C18.2072 11.1885 18.4572 11.1076 18.6617 10.9456C18.8663 10.7809 19.0211 10.5536 19.1262 10.2638C19.2342 9.97119 19.2881 9.63454 19.2881 9.25386C19.2881 8.87602 19.2356 8.54363 19.1305 8.2567C19.0253 7.96977 18.8705 7.74534 18.666 7.58341C18.4614 7.42148 18.21 7.34051 17.9117 7.34051C17.6163 7.34051 17.3663 7.41863 17.1617 7.57488C16.96 7.73113 16.8052 7.95273 16.6972 8.23966C16.5893 8.52659 16.5353 8.86466 16.5353 9.25386Z" fill="white"/>
<path d="M180.097 76.4977C178.195 76.4904 176.559 76.0223 175.188 75.0935C173.824 74.1647 172.773 72.8194 172.036 71.0577C171.307 69.296 170.945 67.1767 170.953 64.6999C170.953 62.2306 171.318 60.126 172.047 58.3864C172.785 56.6468 173.835 55.3236 175.199 54.417C176.57 53.5029 178.202 53.0459 180.097 53.0459C181.991 53.0459 183.62 53.5029 184.984 54.417C186.355 55.331 187.409 56.6578 188.146 58.3975C188.883 60.1297 189.248 62.2306 189.241 64.6999C189.241 67.1841 188.872 69.307 188.135 71.0688C187.406 72.8305 186.359 74.1758 184.995 75.1046C183.631 76.0333 181.999 76.4977 180.097 76.4977ZM180.097 72.5283C181.394 72.5283 182.43 71.8759 183.204 70.5712C183.978 69.2665 184.361 67.3094 184.354 64.6999C184.354 62.9824 184.177 61.5524 183.823 60.4098C183.477 59.2673 182.983 58.4085 182.341 57.8336C181.707 57.2586 180.959 56.9711 180.097 56.9711C178.807 56.9711 177.775 57.6161 177.001 58.9061C176.227 60.1961 175.836 62.1274 175.829 64.6999C175.829 66.4396 176.002 67.8917 176.349 69.0564C176.702 70.2137 177.2 71.0835 177.841 71.6658C178.483 72.2408 179.234 72.5283 180.097 72.5283Z" fill="#0C575E"/>
<path d="M165.654 76.2877C164.924 76.2877 164.297 76.0297 163.774 75.5137C163.258 74.9903 163 74.3638 163 73.634C163 72.9116 163.258 72.2924 163.774 71.7764C164.297 71.2604 164.924 71.0024 165.654 71.0024C166.361 71.0024 166.981 71.2604 167.511 71.7764C168.042 72.2924 168.307 72.9116 168.307 73.634C168.307 74.1205 168.182 74.5665 167.931 74.9719C167.688 75.3699 167.368 75.6906 166.969 75.9339C166.571 76.1697 166.133 76.2877 165.654 76.2877Z" fill="#0C575E"/>
<path d="M143.244 76.0002V72.5504L151.305 65.0869C151.99 64.4235 152.565 63.8264 153.03 63.2957C153.501 62.765 153.859 62.2453 154.102 61.7367C154.345 61.2207 154.467 60.6642 154.467 60.0671C154.467 59.4037 154.316 58.8324 154.014 58.3532C153.711 57.8667 153.299 57.4945 152.775 57.2365C152.252 56.9711 151.658 56.8384 150.995 56.8384C150.302 56.8384 149.698 56.9785 149.182 57.2586C148.666 57.5387 148.268 57.9405 147.988 58.4638C147.707 58.9872 147.567 59.6101 147.567 60.3324H143.023C143.023 58.8508 143.358 57.5645 144.029 56.4736C144.7 55.3826 145.64 54.5386 146.849 53.9415C148.058 53.3444 149.451 53.0459 151.028 53.0459C152.65 53.0459 154.061 53.3334 155.263 53.9083C156.472 54.4759 157.412 55.2647 158.083 56.2745C158.753 57.2844 159.089 58.4417 159.089 59.7464C159.089 60.6015 158.919 61.4455 158.58 62.2785C158.248 63.1114 157.655 64.0365 156.8 65.0538C155.945 66.0636 154.74 67.2762 153.184 68.6915L149.878 71.9312V72.086H159.387V76.0002H143.244Z" fill="#0C575E"/>
<path d="M45.2416 46.3097C43.6788 46.3097 42.2857 46.0223 41.062 45.4473C39.8458 44.8723 38.8801 44.0799 38.1651 43.07C37.4501 42.0602 37.0778 40.9029 37.0483 39.5982H41.6923C41.7439 40.4753 42.1124 41.1867 42.798 41.7322C43.4835 42.2776 44.298 42.5504 45.2416 42.5504C45.9934 42.5504 46.6569 42.3845 47.2318 42.0528C47.8141 41.7137 48.2675 41.2456 48.5918 40.6486C48.9235 40.0441 49.0894 39.3512 49.0894 38.5699C49.0894 37.7738 48.9198 37.0735 48.5808 36.469C48.2491 35.8646 47.7883 35.3928 47.1986 35.0537C46.6089 34.7147 45.9345 34.5414 45.1752 34.5341C44.5118 34.5341 43.8668 34.6704 43.2402 34.9432C42.6211 35.2159 42.1382 35.5882 41.7918 36.0599L37.5348 35.297L38.6074 23.3555H52.4507V27.2696H42.5547L41.9687 32.9419H42.1014C42.4994 32.3816 43.1002 31.9173 43.9037 31.5487C44.7071 31.1801 45.6064 30.9958 46.6016 30.9958C47.9653 30.9958 49.1815 31.3165 50.2504 31.9578C51.3192 32.5991 52.1632 33.48 52.7824 34.6004C53.4016 35.7135 53.7075 36.9961 53.7001 38.4482C53.7075 39.9741 53.3537 41.3304 52.6387 42.5172C51.931 43.6966 50.9396 44.6254 49.6643 45.3036C48.3965 45.9743 46.9222 46.3097 45.2416 46.3097Z" fill="#0C575E"/>
<path d="M30.6766 46.2877C29.9469 46.2877 29.3203 46.0297 28.7969 45.5137C28.2809 44.9903 28.0229 44.3638 28.0229 43.634C28.0229 42.9116 28.2809 42.2924 28.7969 41.7764C29.3203 41.2604 29.9469 41.0024 30.6766 41.0024C31.3843 41.0024 32.0035 41.2604 32.5342 41.7764C33.0649 42.2924 33.3303 42.9116 33.3303 43.634C33.3303 44.1205 33.205 44.5665 32.9544 44.9719C32.7111 45.3699 32.3905 45.6906 31.9924 45.9339C31.5944 46.1697 31.1558 46.2877 30.6766 46.2877Z" fill="#0C575E"/>
<path d="M23.7135 23.3555V46.0001H18.9258V27.8999H18.7931L13.6074 31.1506V26.9048L19.2133 23.3555H23.7135Z" fill="#0C575E"/>
<path d="M8.33294 41.2617H4.2V43.5231H8.33294V41.2617ZM10.4941 38.1982H4.77928C4.54534 38.8109 4.27798 39.4124 3.96606 39.9806H9.73658V45.3612H8.33294V44.8042H4.2V45.4169H2.87434V41.6404C2.37304 42.2643 1.8049 42.8213 1.14764 43.2891C0.958258 42.9772 0.534938 42.4982 0.267578 42.2308C1.68236 41.2728 2.66268 39.8023 3.34222 38.1982H0.657478V36.8948H3.79896C3.99948 36.2709 4.15544 35.6248 4.27798 35.001L5.67048 35.2572C5.5368 35.8031 5.39198 36.3489 5.22488 36.8948H10.4941V38.1982Z" fill="#0C575E"/>
<path d="M136.333 41.2617H132.2V43.5231H136.333V41.2617ZM138.494 38.1982H132.779C132.545 38.8109 132.278 39.4124 131.966 39.9806H137.737V45.3612H136.333V44.8042H132.2V45.4169H130.874V41.6404C130.373 42.2643 129.805 42.8213 129.148 43.2891C128.958 42.9772 128.535 42.4982 128.268 42.2308C129.682 41.2728 130.663 39.8023 131.342 38.1982H128.657V36.8948H131.799C131.999 36.2709 132.155 35.6248 132.278 35.001L133.67 35.2572C133.537 35.8031 133.392 36.3489 133.225 36.8948H138.494V38.1982Z" fill="#0C575E"/>
<path d="M180.097 46.4977C178.195 46.4904 176.559 46.0223 175.188 45.0935C173.824 44.1647 172.773 42.8194 172.036 41.0577C171.307 39.296 170.945 37.1767 170.953 34.6999C170.953 32.2306 171.318 30.126 172.047 28.3864C172.785 26.6468 173.835 25.3236 175.199 24.417C176.57 23.5029 178.202 23.0459 180.097 23.0459C181.991 23.0459 183.62 23.5029 184.984 24.417C186.355 25.331 187.409 26.6578 188.146 28.3975C188.883 30.1297 189.248 32.2306 189.241 34.6999C189.241 37.1841 188.872 39.307 188.135 41.0688C187.406 42.8305 186.359 44.1758 184.995 45.1046C183.631 46.0333 181.999 46.4977 180.097 46.4977ZM180.097 42.5283C181.394 42.5283 182.43 41.8759 183.204 40.5712C183.978 39.2665 184.361 37.3094 184.354 34.6999C184.354 32.9824 184.177 31.5524 183.823 30.4098C183.477 29.2673 182.983 28.4085 182.341 27.8336C181.707 27.2586 180.959 26.9711 180.097 26.9711C178.807 26.9711 177.775 27.6161 177.001 28.9061C176.227 30.1961 175.836 32.1274 175.829 34.6999C175.829 36.4396 176.002 37.8917 176.349 39.0564C176.702 40.2137 177.2 41.0835 177.841 41.6658C178.483 42.2408 179.234 42.5283 180.097 42.5283Z" fill="#0C575E"/>
<path d="M165.654 46.2877C164.924 46.2877 164.297 46.0297 163.774 45.5137C163.258 44.9903 163 44.3638 163 43.634C163 42.9116 163.258 42.2924 163.774 41.7764C164.297 41.2604 164.924 41.0024 165.654 41.0024C166.361 41.0024 166.981 41.2604 167.511 41.7764C168.042 42.2924 168.307 42.9116 168.307 43.634C168.307 44.1205 168.182 44.5665 167.931 44.9719C167.688 45.3699 167.368 45.6906 166.969 45.9339C166.571 46.1697 166.133 46.2877 165.654 46.2877Z" fill="#0C575E"/>
<path d="M143.244 46.0002V42.5504L151.305 35.0869C151.99 34.4235 152.565 33.8264 153.03 33.2957C153.501 32.765 153.859 32.2453 154.102 31.7367C154.345 31.2207 154.467 30.6642 154.467 30.0671C154.467 29.4037 154.316 28.8324 154.014 28.3532C153.711 27.8667 153.299 27.4945 152.775 27.2365C152.252 26.9711 151.658 26.8384 150.995 26.8384C150.302 26.8384 149.698 26.9785 149.182 27.2586C148.666 27.5387 148.268 27.9405 147.988 28.4638C147.707 28.9872 147.567 29.6101 147.567 30.3324H143.023C143.023 28.8508 143.358 27.5645 144.029 26.4736C144.7 25.3826 145.64 24.5386 146.849 23.9415C148.058 23.3444 149.451 23.0459 151.028 23.0459C152.65 23.0459 154.061 23.3334 155.263 23.9083C156.472 24.4759 157.412 25.2647 158.083 26.2745C158.753 27.2844 159.089 28.4417 159.089 29.7464C159.089 30.6015 158.919 31.4455 158.58 32.2785C158.248 33.1114 157.655 34.0365 156.8 35.0538C155.945 36.0636 154.74 37.2762 153.184 38.6915L149.878 41.9312V42.086H159.387V46.0002H143.244Z" fill="#0C575E"/>
<path d="M195.303 0H128V16.7064H195.303V0Z" fill="#0C575E"/>
<path d="M171.08 12.5264V5.98096H172.84V7.123H172.908C173.027 6.71675 173.227 6.40993 173.509 6.20255C173.79 5.99232 174.114 5.88721 174.48 5.88721C174.571 5.88721 174.669 5.89289 174.774 5.90425C174.879 5.91562 174.972 5.93124 175.051 5.95113V7.56192C174.966 7.53635 174.848 7.51363 174.697 7.49374C174.547 7.47386 174.409 7.46391 174.284 7.46391C174.017 7.46391 173.778 7.52215 173.568 7.63863C173.361 7.75226 173.196 7.91136 173.074 8.1159C172.955 8.32045 172.895 8.55624 172.895 8.82329V12.5264H171.08Z" fill="white"/>
<path d="M166.891 12.6545C166.217 12.6545 165.638 12.5182 165.152 12.2454C164.669 11.9699 164.297 11.5807 164.036 11.0778C163.774 10.5721 163.644 9.97412 163.644 9.28378C163.644 8.61048 163.774 8.01958 164.036 7.51105C164.297 7.00253 164.665 6.60622 165.139 6.32213C165.617 6.03804 166.176 5.896 166.818 5.896C167.25 5.896 167.652 5.9656 168.024 6.1048C168.399 6.24117 168.726 6.44713 169.004 6.7227C169.286 6.99827 169.504 7.34486 169.661 7.76247C169.817 8.17725 169.895 8.66304 169.895 9.21986V9.71844H164.368V8.59344H168.186C168.186 8.33208 168.129 8.10054 168.016 7.89884C167.902 7.69713 167.744 7.53946 167.543 7.42583C167.344 7.30935 167.112 7.25111 166.848 7.25111C166.573 7.25111 166.328 7.31503 166.115 7.44287C165.905 7.56787 165.74 7.7369 165.621 7.94997C165.502 8.1602 165.44 8.39458 165.438 8.6531V9.7227C165.438 10.0466 165.497 10.3264 165.617 10.5622C165.739 10.798 165.911 10.9798 166.132 11.1076C166.354 11.2355 166.617 11.2994 166.921 11.2994C167.122 11.2994 167.307 11.271 167.475 11.2142C167.642 11.1574 167.786 11.0721 167.905 10.9585C168.024 10.8449 168.115 10.7057 168.178 10.5409L169.857 10.6517C169.771 11.0551 169.597 11.4074 169.332 11.7085C169.071 12.0068 168.733 12.2397 168.318 12.4074C167.906 12.5721 167.43 12.6545 166.891 12.6545Z" fill="white"/>
<path d="M162.796 5.98127V7.3449H158.854V5.98127H162.796ZM159.749 4.41309H161.564V10.5154C161.564 10.683 161.59 10.8137 161.641 10.9074C161.692 10.9983 161.763 11.0622 161.854 11.0992C161.948 11.1361 162.056 11.1546 162.178 11.1546C162.263 11.1546 162.348 11.1475 162.434 11.1333C162.519 11.1162 162.584 11.1034 162.63 11.0949L162.915 12.4458C162.824 12.4742 162.696 12.5068 162.532 12.5438C162.367 12.5835 162.167 12.6077 161.931 12.6162C161.493 12.6333 161.11 12.575 160.78 12.4415C160.453 12.308 160.199 12.1006 160.017 11.8193C159.836 11.5381 159.746 11.183 159.749 10.754V4.41309Z" fill="white"/>
<path d="M158.205 5.98105V7.34468H154.166V5.98105H158.205ZM155.09 12.5265V5.50803C155.09 5.0336 155.183 4.64014 155.367 4.32764C155.555 4.01514 155.81 3.78076 156.134 3.62451C156.458 3.46826 156.826 3.39014 157.238 3.39014C157.516 3.39014 157.771 3.41144 158.001 3.45406C158.234 3.49667 158.407 3.53502 158.521 3.56911L158.197 4.93275C158.126 4.91002 158.038 4.88872 157.933 4.86883C157.83 4.84894 157.725 4.839 157.617 4.839C157.35 4.839 157.164 4.9015 157.059 5.0265C156.954 5.14866 156.901 5.32053 156.901 5.54213V12.5265H155.09Z" fill="white"/>
<path d="M149.591 12.6503C149.173 12.6503 148.801 12.5778 148.474 12.4329C148.148 12.2852 147.889 12.0679 147.699 11.7809C147.511 11.4912 147.417 11.1304 147.417 10.6986C147.417 10.3349 147.484 10.0295 147.618 9.78236C147.751 9.5352 147.933 9.33634 148.163 9.18577C148.393 9.0352 148.655 8.92156 148.947 8.84486C149.243 8.76816 149.552 8.71418 149.876 8.68293C150.257 8.64316 150.564 8.60622 150.797 8.57213C151.03 8.5352 151.199 8.48122 151.304 8.4102C151.409 8.33918 151.462 8.23406 151.462 8.09486V8.06929C151.462 7.79941 151.376 7.5906 151.206 7.44287C151.038 7.29514 150.8 7.22128 150.49 7.22128C150.163 7.22128 149.903 7.29372 149.71 7.43861C149.517 7.58066 149.389 7.75963 149.327 7.97554L147.648 7.83918C147.733 7.44145 147.9 7.0977 148.15 6.80793C148.4 6.51531 148.723 6.29088 149.118 6.13463C149.515 5.97554 149.976 5.896 150.498 5.896C150.862 5.896 151.21 5.93861 151.542 6.02384C151.878 6.10906 152.175 6.24117 152.433 6.42014C152.694 6.59912 152.9 6.82924 153.051 7.11049C153.202 7.38889 153.277 7.7227 153.277 8.11191V12.5267H151.555V11.619H151.504C151.399 11.8236 151.258 12.004 151.082 12.1602C150.906 12.3136 150.694 12.4343 150.447 12.5224C150.2 12.6076 149.915 12.6503 149.591 12.6503ZM150.111 11.3974C150.378 11.3974 150.614 11.3449 150.818 11.2397C151.023 11.1318 151.183 10.9869 151.3 10.8051C151.416 10.6233 151.474 10.4173 151.474 10.1872V9.49259C151.417 9.52952 151.339 9.56361 151.24 9.59486C151.143 9.62327 151.034 9.65026 150.912 9.67583C150.79 9.69855 150.667 9.71986 150.545 9.73975C150.423 9.75679 150.312 9.77242 150.213 9.78662C150 9.81787 149.814 9.86759 149.655 9.93577C149.496 10.004 149.372 10.0963 149.284 10.2128C149.196 10.3264 149.152 10.4684 149.152 10.6389C149.152 10.8861 149.241 11.075 149.42 11.2057C149.602 11.3335 149.832 11.3974 150.111 11.3974Z" fill="white"/>
</svg>
