<svg width="196" height="84" viewBox="0 0 196 84" fill="none" xmlns="http://www.w3.org/2000/svg">
<path d="M92.8789 48.2235L104.905 40.1567L92.8789 32.0898V48.2235Z" fill="#0C575E"/>
<path d="M37.1533 76.0002V72.5504L45.2138 65.0869C45.8993 64.4235 46.4743 63.8264 46.9387 63.2957C47.4105 62.765 47.768 62.2453 48.0112 61.7367C48.2545 61.2207 48.3761 60.6642 48.3761 60.0671C48.3761 59.4037 48.225 58.8324 47.9228 58.3532C47.6205 57.8667 47.2077 57.4945 46.6844 57.2365C46.161 56.9711 45.5676 56.8384 44.9042 56.8384C44.2113 56.8384 43.6069 56.9785 43.0909 57.2586C42.5749 57.5387 42.1768 57.9405 41.8967 58.4638C41.6166 58.9872 41.4765 59.6101 41.4765 60.3324H36.9321C36.9321 58.8508 37.2675 57.5645 37.9383 56.4736C38.6091 55.3826 39.5489 54.5386 40.7578 53.9415C41.9667 53.3444 43.3599 53.0459 44.9374 53.0459C46.5591 53.0459 47.9707 53.3334 49.1722 53.9083C50.3811 54.4759 51.3209 55.2647 51.9917 56.2745C52.6625 57.2844 52.9979 58.4417 52.9979 59.7464C52.9979 60.6015 52.8284 61.4455 52.4893 62.2785C52.1576 63.1114 51.5642 64.0365 50.7091 65.0538C49.854 66.0636 48.6488 67.2762 47.0935 68.6915L43.7875 71.9312V72.086H53.2964V76.0002H37.1533Z" fill="#0C575E"/>
<path d="M30.6766 76.2877C29.9469 76.2877 29.3203 76.0297 28.7969 75.5137C28.2809 74.9903 28.0229 74.3638 28.0229 73.634C28.0229 72.9116 28.2809 72.2924 28.7969 71.7764C29.3203 71.2604 29.9469 71.0024 30.6766 71.0024C31.3843 71.0024 32.0035 71.2604 32.5342 71.7764C33.0649 72.2924 33.3303 72.9116 33.3303 73.634C33.3303 74.1205 33.205 74.5665 32.9544 74.9719C32.7111 75.3699 32.3905 75.6906 31.9924 75.9339C31.5944 76.1697 31.1558 76.2877 30.6766 76.2877Z" fill="#0C575E"/>
<path d="M23.7135 53.3555V76.0001H18.9258V57.8999H18.7931L13.6074 61.1506V56.9048L19.2133 53.3555H23.7135Z" fill="#0C575E"/>
<path d="M7.49717 73.8908H10.6498V75.1719H2.74039V73.8908H6.12695V71.1169H3.95465V70.4262C3.30853 72.1307 2.38391 73.6791 1.10281 74.8377C0.902287 74.5369 0.501247 74.0467 0.233887 73.7794C1.79349 72.4314 2.72925 70.3371 3.30853 68.1425H0.679487V66.8614H3.59817C3.73185 66.2376 3.83211 65.6138 3.92123 65.0122L5.30259 65.1793C5.20233 65.7363 5.10207 66.3044 4.97953 66.8614H10.4715V68.1425H4.67875C4.52279 68.7107 4.36683 69.29 4.16631 69.847H10.2487V71.1169H7.49717V73.8908Z" fill="#0C575E"/>
<path d="M135.497 73.8908H138.65V75.1719H130.74V73.8908H134.127V71.1169H131.955V70.4262C131.309 72.1307 130.384 73.6791 129.103 74.8377C128.902 74.5369 128.501 74.0467 128.234 73.7794C129.793 72.4314 130.729 70.3371 131.309 68.1425H128.679V66.8614H131.598C131.732 66.2376 131.832 65.6138 131.921 65.0122L133.303 65.1793C133.202 65.7363 133.102 66.3044 132.98 66.8614H138.472V68.1425H132.679C132.523 68.7107 132.367 69.29 132.166 69.847H138.249V71.1169H135.497V73.8908Z" fill="#0C575E"/>
<path d="M67.3031 0H0V16.7064H67.3031V0Z" fill="#0C575E"/>
<path d="M48.8673 12.6545C48.194 12.6545 47.6144 12.5182 47.1286 12.2454C46.6457 11.9699 46.2735 11.5807 46.0122 11.0778C45.7508 10.5721 45.6201 9.97412 45.6201 9.28378C45.6201 8.61048 45.7508 8.01958 46.0122 7.51105C46.2735 7.00253 46.6414 6.60622 47.1159 6.32213C47.5931 6.03804 48.1528 5.896 48.7948 5.896C49.2267 5.896 49.6286 5.9656 50.0008 6.1048C50.3758 6.24117 50.7025 6.44713 50.9809 6.7227C51.2622 6.99827 51.4809 7.34486 51.6372 7.76247C51.7934 8.17725 51.8715 8.66304 51.8715 9.21986V9.71844H46.3445V8.59344H50.1627C50.1627 8.33208 50.1059 8.10054 49.9923 7.89884C49.8786 7.69713 49.721 7.53946 49.5193 7.42583C49.3204 7.30935 49.0889 7.25111 48.8247 7.25111C48.5491 7.25111 48.3048 7.31503 48.0917 7.44287C47.8815 7.56787 47.7167 7.7369 47.5974 7.94997C47.4781 8.1602 47.417 8.39458 47.4142 8.6531V9.7227C47.4142 10.0466 47.4738 10.3264 47.5931 10.5622C47.7153 10.798 47.8872 10.9798 48.1088 11.1076C48.3303 11.2355 48.5931 11.2994 48.8971 11.2994C49.0988 11.2994 49.2835 11.271 49.4511 11.2142C49.6187 11.1574 49.7622 11.0721 49.8815 10.9585C50.0008 10.8449 50.0917 10.7057 50.1542 10.5409L51.8332 10.6517C51.748 11.0551 51.5732 11.4074 51.309 11.7085C51.0477 12.0068 50.7096 12.2397 50.2948 12.4074C49.8829 12.5721 49.407 12.6545 48.8673 12.6545Z" fill="white"/>
<path d="M41.2788 12.5264V5.98096H43.0388V7.123H43.1069C43.2263 6.71675 43.4265 6.40993 43.7078 6.20255C43.989 5.99232 44.3129 5.88721 44.6794 5.88721C44.7703 5.88721 44.8683 5.89289 44.9734 5.90425C45.0785 5.91562 45.1709 5.93124 45.2504 5.95113V7.56192C45.1652 7.53635 45.0473 7.51363 44.8967 7.49374C44.7461 7.47386 44.6084 7.46391 44.4834 7.46391C44.2163 7.46391 43.9777 7.52215 43.7674 7.63863C43.5601 7.75226 43.3953 7.91136 43.2731 8.1159C43.1538 8.32045 43.0941 8.55624 43.0941 8.82329V12.5264H41.2788Z" fill="white"/>
<path d="M36.8769 12.6545C36.2149 12.6545 35.6425 12.5139 35.1595 12.2326C34.6794 11.9486 34.3087 11.5537 34.0473 11.048C33.786 10.5395 33.6553 9.94997 33.6553 9.27952C33.6553 8.60338 33.786 8.01247 34.0473 7.50679C34.3087 6.99827 34.6794 6.60338 35.1595 6.32213C35.6425 6.03804 36.2149 5.896 36.8769 5.896C37.5388 5.896 38.1098 6.03804 38.5899 6.32213C39.0729 6.60338 39.445 6.99827 39.7064 7.50679C39.9678 8.01247 40.0985 8.60338 40.0985 9.27952C40.0985 9.94997 39.9678 10.5395 39.7064 11.048C39.445 11.5537 39.0729 11.9486 38.5899 12.2326C38.1098 12.5139 37.5388 12.6545 36.8769 12.6545ZM36.8854 11.2483C37.1865 11.2483 37.4379 11.163 37.6396 10.9926C37.8414 10.8193 37.9933 10.5835 38.0956 10.2852C38.2007 9.98691 38.2533 9.64742 38.2533 9.26674C38.2533 8.88605 38.2007 8.54656 38.0956 8.24827C37.9933 7.94997 37.8414 7.71418 37.6396 7.54088C37.4379 7.36759 37.1865 7.28094 36.8854 7.28094C36.5814 7.28094 36.3257 7.36759 36.1183 7.54088C35.9138 7.71418 35.759 7.94997 35.6539 8.24827C35.5516 8.54656 35.5004 8.88605 35.5004 9.26674C35.5004 9.64742 35.5516 9.98691 35.6539 10.2852C35.759 10.5835 35.9138 10.8193 36.1183 10.9926C36.3257 11.163 36.5814 11.2483 36.8854 11.2483Z" fill="white"/>
<path d="M33.0447 5.98105V7.34468H29.0049V5.98105H33.0447ZM29.9296 12.5265V5.50803C29.9296 5.0336 30.0219 4.64014 30.2066 4.32764C30.3941 4.01514 30.6498 3.78076 30.9736 3.62451C31.2975 3.46826 31.6654 3.39014 32.0773 3.39014C32.3557 3.39014 32.61 3.41144 32.8401 3.45406C33.0731 3.49667 33.2464 3.53502 33.36 3.56911L33.0361 4.93275C32.9651 4.91002 32.877 4.88872 32.7719 4.86883C32.6697 4.84894 32.5645 4.839 32.4566 4.839C32.1895 4.839 32.0035 4.9015 31.8983 5.0265C31.7932 5.14866 31.7407 5.32053 31.7407 5.54213V12.5265H29.9296Z" fill="white"/>
<path d="M25.336 12.6545C24.6627 12.6545 24.0832 12.5182 23.5974 12.2454C23.1144 11.9699 22.7423 11.5807 22.4809 11.0778C22.2195 10.5721 22.0889 9.97412 22.0889 9.28378C22.0889 8.61048 22.2195 8.01958 22.4809 7.51105C22.7423 7.00253 23.1102 6.60622 23.5846 6.32213C24.0619 6.03804 24.6215 5.896 25.2636 5.896C25.6954 5.896 26.0974 5.9656 26.4695 6.1048C26.8445 6.24117 27.1713 6.44713 27.4497 6.7227C27.7309 6.99827 27.9497 7.34486 28.1059 7.76247C28.2622 8.17725 28.3403 8.66304 28.3403 9.21986V9.71844H22.8133V8.59344H26.6315C26.6315 8.33208 26.5747 8.10054 26.461 7.89884C26.3474 7.69713 26.1897 7.53946 25.988 7.42583C25.7892 7.30935 25.5576 7.25111 25.2934 7.25111C25.0178 7.25111 24.7735 7.31503 24.5605 7.44287C24.3502 7.56787 24.1855 7.7369 24.0661 7.94997C23.9468 8.1602 23.8857 8.39458 23.8829 8.6531V9.7227C23.8829 10.0466 23.9426 10.3264 24.0619 10.5622C24.184 10.798 24.3559 10.9798 24.5775 11.1076C24.7991 11.2355 25.0619 11.2994 25.3659 11.2994C25.5676 11.2994 25.7522 11.271 25.9198 11.2142C26.0874 11.1574 26.2309 11.0721 26.3502 10.9585C26.4695 10.8449 26.5605 10.7057 26.623 10.5409L28.3019 10.6517C28.2167 11.0551 28.042 11.4074 27.7778 11.7085C27.5164 12.0068 27.1784 12.2397 26.7636 12.4074C26.3517 12.5721 25.8758 12.6545 25.336 12.6545Z" fill="white"/>
<path d="M14.7583 12.5266V3.79932H16.5736V7.08057H16.629C16.7086 6.90443 16.8236 6.72545 16.9742 6.54363C17.1276 6.35898 17.3265 6.20557 17.5708 6.08341C17.818 5.95841 18.1248 5.89591 18.4913 5.89591C18.9685 5.89591 19.4089 6.02091 19.8123 6.27091C20.2157 6.51807 20.5381 6.89165 20.7796 7.39165C21.0211 7.88881 21.1418 8.51238 21.1418 9.26238C21.1418 9.9925 21.0239 10.609 20.7881 11.1118C20.5552 11.6118 20.237 11.9911 19.8336 12.2496C19.433 12.5053 18.9842 12.6331 18.487 12.6331C18.1347 12.6331 17.835 12.5749 17.5878 12.4584C17.3435 12.3419 17.1432 12.1956 16.987 12.0195C16.8307 11.8405 16.7114 11.6601 16.629 11.4783H16.5481V12.5266H14.7583ZM16.5353 9.25386C16.5353 9.64307 16.5893 9.98256 16.6972 10.2723C16.8052 10.5621 16.9614 10.788 17.166 10.9499C17.3705 11.109 17.6191 11.1885 17.9117 11.1885C18.2072 11.1885 18.4572 11.1076 18.6617 10.9456C18.8663 10.7809 19.0211 10.5536 19.1262 10.2638C19.2342 9.97119 19.2881 9.63454 19.2881 9.25386C19.2881 8.87602 19.2356 8.54363 19.1305 8.2567C19.0253 7.96977 18.8705 7.74534 18.666 7.58341C18.4614 7.42148 18.21 7.34051 17.9117 7.34051C17.6163 7.34051 17.3663 7.41863 17.1617 7.57488C16.96 7.73113 16.8052 7.95273 16.6972 8.23966C16.5893 8.52659 16.5353 8.86466 16.5353 9.25386Z" fill="white"/>
<path d="M166.536 76.0002V72.5504L174.596 65.0869C175.282 64.4235 175.857 63.8264 176.321 63.2957C176.793 62.765 177.15 62.2453 177.394 61.7367C177.637 61.2207 177.758 60.6642 177.758 60.0671C177.758 59.4037 177.607 58.8324 177.305 58.3532C177.003 57.8667 176.59 57.4945 176.067 57.2365C175.543 56.9711 174.95 56.8384 174.287 56.8384C173.594 56.8384 172.989 56.9785 172.473 57.2586C171.957 57.5387 171.559 57.9405 171.279 58.4638C170.999 58.9872 170.859 59.6101 170.859 60.3324H166.314C166.314 58.8508 166.65 57.5645 167.321 56.4736C167.991 55.3826 168.931 54.5386 170.14 53.9415C171.349 53.3444 172.742 53.0459 174.32 53.0459C175.941 53.0459 177.353 53.3334 178.555 53.9083C179.763 54.4759 180.703 55.2647 181.374 56.2745C182.045 57.2844 182.38 58.4417 182.38 59.7464C182.38 60.6015 182.211 61.4455 181.872 62.2785C181.54 63.1114 180.947 64.0365 180.091 65.0538C179.236 66.0636 178.031 67.2762 176.476 68.6915L173.17 71.9312V72.086H182.679V76.0002H166.536Z" fill="#0C575E"/>
<path d="M160.059 76.2877C159.329 76.2877 158.703 76.0297 158.179 75.5137C157.663 74.9903 157.405 74.3638 157.405 73.634C157.405 72.9116 157.663 72.2924 158.179 71.7764C158.703 71.2604 159.329 71.0024 160.059 71.0024C160.767 71.0024 161.386 71.2604 161.917 71.7764C162.447 72.2924 162.713 72.9116 162.713 73.634C162.713 74.1205 162.587 74.5665 162.337 74.9719C162.093 75.3699 161.773 75.6906 161.375 75.9339C160.977 76.1697 160.538 76.2877 160.059 76.2877Z" fill="#0C575E"/>
<path d="M153.096 53.3555V76.0001H148.308V57.8999H148.175L142.99 61.1506V56.9048L148.596 53.3555H153.096Z" fill="#0C575E"/>
<path d="M48.7045 46.3098C47.0018 46.3098 45.487 46.0333 44.1601 45.4805C42.8406 44.9203 41.805 44.1573 41.0531 43.1917C40.3012 42.2261 39.9253 41.1314 39.9253 39.9078C39.9253 38.9643 40.1391 38.0981 40.5666 37.3094C41.0015 36.5133 41.5912 35.8536 42.3357 35.3302C43.0802 34.7995 43.9132 34.4604 44.8346 34.313V34.1582C43.6257 33.9149 42.6453 33.3289 41.8934 32.4001C41.1416 31.4639 40.7656 30.3767 40.7656 29.1383C40.7656 27.9663 41.1084 26.9232 41.7939 26.0092C42.4795 25.0878 43.4193 24.3654 44.6134 23.842C45.815 23.3113 47.1787 23.0459 48.7045 23.0459C50.2304 23.0459 51.5904 23.3113 52.7845 23.842C53.9861 24.3727 54.9296 25.0988 55.6151 26.0202C56.3007 26.9343 56.6471 27.9736 56.6545 29.1383C56.6471 30.384 56.2638 31.4713 55.5046 32.4001C54.7453 33.3289 53.7723 33.9149 52.5855 34.1582V34.313C53.4922 34.4604 54.3141 34.7995 55.0512 35.3302C55.7957 35.8536 56.3854 36.5133 56.8203 37.3094C57.2626 38.0981 57.4874 38.9643 57.4948 39.9078C57.4874 41.1314 57.1078 42.2261 56.356 43.1917C55.6041 44.1573 54.5647 44.9203 53.2379 45.4805C51.9184 46.0333 50.4073 46.3098 48.7045 46.3098ZM48.7045 42.7936C49.4638 42.7936 50.1272 42.6573 50.6948 42.3845C51.2624 42.1044 51.7047 41.7211 52.0216 41.2346C52.346 40.7407 52.5081 40.1731 52.5081 39.5318C52.5081 38.8758 52.3423 38.2971 52.0106 37.7959C51.6789 37.2873 51.2292 36.8892 50.6616 36.6017C50.094 36.3069 49.4417 36.1595 48.7045 36.1595C47.9748 36.1595 47.3224 36.3069 46.7474 36.6017C46.1725 36.8892 45.7191 37.2873 45.3874 37.7959C45.0631 38.2971 44.9009 38.8758 44.9009 39.5318C44.9009 40.1731 45.0594 40.7407 45.3764 41.2346C45.6933 41.7211 46.1393 42.1044 46.7143 42.3845C47.2892 42.6573 47.9527 42.7936 48.7045 42.7936ZM48.7045 32.6765C49.3385 32.6765 49.9024 32.5475 50.3962 32.2895C50.8901 32.0315 51.2771 31.674 51.5572 31.217C51.8373 30.76 51.9774 30.2329 51.9774 29.6359C51.9774 29.0461 51.8373 28.5302 51.5572 28.0879C51.2771 27.6382 50.8938 27.2881 50.4073 27.0375C49.9208 26.7795 49.3532 26.6505 48.7045 26.6505C48.0632 26.6505 47.4956 26.7795 47.0018 27.0375C46.5079 27.2881 46.1209 27.6382 45.8408 28.0879C45.568 28.5302 45.4317 29.0461 45.4317 29.6359C45.4317 30.2329 45.5717 30.76 45.8518 31.217C46.1319 31.674 46.5189 32.0315 47.0128 32.2895C47.5067 32.5475 48.0706 32.6765 48.7045 32.6765Z" fill="#0C575E"/>
<path d="M35.9383 46.2877C35.2086 46.2877 34.582 46.0297 34.0587 45.5137C33.5427 44.9903 33.2847 44.3638 33.2847 43.634C33.2847 42.9116 33.5427 42.2924 34.0587 41.7764C34.582 41.2604 35.2086 41.0024 35.9383 41.0024C36.646 41.0024 37.2652 41.2604 37.7959 41.7764C38.3266 42.2924 38.592 42.9116 38.592 43.634C38.592 44.1205 38.4667 44.5665 38.2161 44.9719C37.9728 45.3699 37.6522 45.6906 37.2541 45.9339C36.8561 46.1697 36.4175 46.2877 35.9383 46.2877Z" fill="#0C575E"/>
<path d="M22.7404 46.4977C20.8386 46.4904 19.2022 46.0223 17.8311 45.0935C16.4674 44.1647 15.417 42.8194 14.6799 41.0577C13.9501 39.296 13.5889 37.1767 13.5963 34.6999C13.5963 32.2306 13.9612 30.126 14.6909 28.3864C15.4281 26.6468 16.4785 25.3236 17.8422 24.417C19.2132 23.5029 20.846 23.0459 22.7404 23.0459C24.6348 23.0459 26.2639 23.5029 27.6276 24.417C28.9987 25.331 30.0528 26.6578 30.7899 28.3975C31.527 30.1297 31.8919 32.2306 31.8845 34.6999C31.8845 37.1841 31.516 39.307 30.7788 41.0688C30.0491 42.8305 29.0023 44.1758 27.6387 45.1046C26.275 46.0333 24.6422 46.4977 22.7404 46.4977ZM22.7404 42.5283C24.0378 42.5283 25.0734 41.8759 25.8474 40.5712C26.6214 39.2665 27.0047 37.3094 26.9974 34.6999C26.9974 32.9824 26.8204 31.5524 26.4666 30.4098C26.1202 29.2673 25.6263 28.4085 24.985 27.8336C24.351 27.2586 23.6029 26.9711 22.7404 26.9711C21.4504 26.9711 20.4185 27.6161 19.6445 28.9061C18.8705 30.1961 18.4798 32.1274 18.4724 34.6999C18.4724 36.4396 18.6457 37.8917 18.9921 39.0564C19.3459 40.2137 19.8435 41.0835 20.4848 41.6658C21.1261 42.2408 21.878 42.5283 22.7404 42.5283Z" fill="#0C575E"/>
<path d="M8.33294 41.2617H4.2V43.5231H8.33294V41.2617ZM10.4941 38.1982H4.77928C4.54534 38.8109 4.27798 39.4124 3.96606 39.9806H9.73658V45.3612H8.33294V44.8042H4.2V45.4169H2.87434V41.6404C2.37304 42.2643 1.8049 42.8213 1.14764 43.2891C0.958258 42.9772 0.534938 42.4982 0.267578 42.2308C1.68236 41.2728 2.66268 39.8023 3.34222 38.1982H0.657478V36.8948H3.79896C3.99948 36.2709 4.15544 35.6248 4.27798 35.001L5.67048 35.2572C5.5368 35.8031 5.39198 36.3489 5.22488 36.8948H10.4941V38.1982Z" fill="#0C575E"/>
<path d="M136.333 41.2617H132.2V43.5231H136.333V41.2617ZM138.494 38.1982H132.779C132.545 38.8109 132.278 39.4124 131.966 39.9806H137.737V45.3612H136.333V44.8042H132.2V45.4169H130.874V41.6404C130.373 42.2643 129.805 42.8213 129.148 43.2891C128.958 42.9772 128.535 42.4982 128.268 42.2308C129.682 41.2728 130.663 39.8023 131.342 38.1982H128.657V36.8948H131.799C131.999 36.2709 132.155 35.6248 132.278 35.001L133.67 35.2572C133.537 35.8031 133.392 36.3489 133.225 36.8948H138.494V38.1982Z" fill="#0C575E"/>
<path d="M166.536 46.0002V42.5504L174.596 35.0869C175.282 34.4235 175.857 33.8264 176.321 33.2957C176.793 32.765 177.15 32.2453 177.394 31.7367C177.637 31.2207 177.758 30.6642 177.758 30.0671C177.758 29.4037 177.607 28.8324 177.305 28.3532C177.003 27.8667 176.59 27.4945 176.067 27.2365C175.543 26.9711 174.95 26.8384 174.287 26.8384C173.594 26.8384 172.989 26.9785 172.473 27.2586C171.957 27.5387 171.559 27.9405 171.279 28.4638C170.999 28.9872 170.859 29.6101 170.859 30.3324H166.314C166.314 28.8508 166.65 27.5645 167.321 26.4736C167.991 25.3826 168.931 24.5386 170.14 23.9415C171.349 23.3444 172.742 23.0459 174.32 23.0459C175.941 23.0459 177.353 23.3334 178.555 23.9083C179.763 24.4759 180.703 25.2647 181.374 26.2745C182.045 27.2844 182.38 28.4417 182.38 29.7464C182.38 30.6015 182.211 31.4455 181.872 32.2785C181.54 33.1114 180.947 34.0365 180.091 35.0538C179.236 36.0636 178.031 37.2762 176.476 38.6915L173.17 41.9312V42.086H182.679V46.0002H166.536Z" fill="#0C575E"/>
<path d="M160.059 46.2877C159.329 46.2877 158.703 46.0297 158.179 45.5137C157.663 44.9903 157.405 44.3638 157.405 43.634C157.405 42.9116 157.663 42.2924 158.179 41.7764C158.703 41.2604 159.329 41.0024 160.059 41.0024C160.767 41.0024 161.386 41.2604 161.917 41.7764C162.447 42.2924 162.713 42.9116 162.713 43.634C162.713 44.1205 162.587 44.5665 162.337 44.9719C162.093 45.3699 161.773 45.6906 161.375 45.9339C160.977 46.1697 160.538 46.2877 160.059 46.2877Z" fill="#0C575E"/>
<path d="M153.096 23.3555V46.0001H148.308V27.8999H148.175L142.99 31.1506V26.9048L148.596 23.3555H153.096Z" fill="#0C575E"/>
<path d="M195.303 0H128V16.7064H195.303V0Z" fill="#0C575E"/>
<path d="M171.08 12.5264V5.98096H172.84V7.123H172.908C173.027 6.71675 173.227 6.40993 173.509 6.20255C173.79 5.99232 174.114 5.88721 174.48 5.88721C174.571 5.88721 174.669 5.89289 174.774 5.90425C174.879 5.91562 174.972 5.93124 175.051 5.95113V7.56192C174.966 7.53635 174.848 7.51363 174.697 7.49374C174.547 7.47386 174.409 7.46391 174.284 7.46391C174.017 7.46391 173.778 7.52215 173.568 7.63863C173.361 7.75226 173.196 7.91136 173.074 8.1159C172.955 8.32045 172.895 8.55624 172.895 8.82329V12.5264H171.08Z" fill="white"/>
<path d="M166.891 12.6545C166.217 12.6545 165.638 12.5182 165.152 12.2454C164.669 11.9699 164.297 11.5807 164.036 11.0778C163.774 10.5721 163.644 9.97412 163.644 9.28378C163.644 8.61048 163.774 8.01958 164.036 7.51105C164.297 7.00253 164.665 6.60622 165.139 6.32213C165.617 6.03804 166.176 5.896 166.818 5.896C167.25 5.896 167.652 5.9656 168.024 6.1048C168.399 6.24117 168.726 6.44713 169.004 6.7227C169.286 6.99827 169.504 7.34486 169.661 7.76247C169.817 8.17725 169.895 8.66304 169.895 9.21986V9.71844H164.368V8.59344H168.186C168.186 8.33208 168.129 8.10054 168.016 7.89884C167.902 7.69713 167.744 7.53946 167.543 7.42583C167.344 7.30935 167.112 7.25111 166.848 7.25111C166.573 7.25111 166.328 7.31503 166.115 7.44287C165.905 7.56787 165.74 7.7369 165.621 7.94997C165.502 8.1602 165.44 8.39458 165.438 8.6531V9.7227C165.438 10.0466 165.497 10.3264 165.617 10.5622C165.739 10.798 165.911 10.9798 166.132 11.1076C166.354 11.2355 166.617 11.2994 166.921 11.2994C167.122 11.2994 167.307 11.271 167.475 11.2142C167.642 11.1574 167.786 11.0721 167.905 10.9585C168.024 10.8449 168.115 10.7057 168.178 10.5409L169.857 10.6517C169.771 11.0551 169.597 11.4074 169.332 11.7085C169.071 12.0068 168.733 12.2397 168.318 12.4074C167.906 12.5721 167.43 12.6545 166.891 12.6545Z" fill="white"/>
<path d="M162.796 5.98127V7.3449H158.854V5.98127H162.796ZM159.749 4.41309H161.564V10.5154C161.564 10.683 161.59 10.8137 161.641 10.9074C161.692 10.9983 161.763 11.0622 161.854 11.0992C161.948 11.1361 162.056 11.1546 162.178 11.1546C162.263 11.1546 162.348 11.1475 162.434 11.1333C162.519 11.1162 162.584 11.1034 162.63 11.0949L162.915 12.4458C162.824 12.4742 162.696 12.5068 162.532 12.5438C162.367 12.5835 162.167 12.6077 161.931 12.6162C161.493 12.6333 161.11 12.575 160.78 12.4415C160.453 12.308 160.199 12.1006 160.017 11.8193C159.836 11.5381 159.746 11.183 159.749 10.754V4.41309Z" fill="white"/>
<path d="M158.205 5.98105V7.34468H154.166V5.98105H158.205ZM155.09 12.5265V5.50803C155.09 5.0336 155.183 4.64014 155.367 4.32764C155.555 4.01514 155.81 3.78076 156.134 3.62451C156.458 3.46826 156.826 3.39014 157.238 3.39014C157.516 3.39014 157.771 3.41144 158.001 3.45406C158.234 3.49667 158.407 3.53502 158.521 3.56911L158.197 4.93275C158.126 4.91002 158.038 4.88872 157.933 4.86883C157.83 4.84894 157.725 4.839 157.617 4.839C157.35 4.839 157.164 4.9015 157.059 5.0265C156.954 5.14866 156.901 5.32053 156.901 5.54213V12.5265H155.09Z" fill="white"/>
<path d="M149.591 12.6503C149.173 12.6503 148.801 12.5778 148.474 12.4329C148.148 12.2852 147.889 12.0679 147.699 11.7809C147.511 11.4912 147.417 11.1304 147.417 10.6986C147.417 10.3349 147.484 10.0295 147.618 9.78236C147.751 9.5352 147.933 9.33634 148.163 9.18577C148.393 9.0352 148.655 8.92156 148.947 8.84486C149.243 8.76816 149.552 8.71418 149.876 8.68293C150.257 8.64316 150.564 8.60622 150.797 8.57213C151.03 8.5352 151.199 8.48122 151.304 8.4102C151.409 8.33918 151.462 8.23406 151.462 8.09486V8.06929C151.462 7.79941 151.376 7.5906 151.206 7.44287C151.038 7.29514 150.8 7.22128 150.49 7.22128C150.163 7.22128 149.903 7.29372 149.71 7.43861C149.517 7.58066 149.389 7.75963 149.327 7.97554L147.648 7.83918C147.733 7.44145 147.9 7.0977 148.15 6.80793C148.4 6.51531 148.723 6.29088 149.118 6.13463C149.515 5.97554 149.976 5.896 150.498 5.896C150.862 5.896 151.21 5.93861 151.542 6.02384C151.878 6.10906 152.175 6.24117 152.433 6.42014C152.694 6.59912 152.9 6.82924 153.051 7.11049C153.202 7.38889 153.277 7.7227 153.277 8.11191V12.5267H151.555V11.619H151.504C151.399 11.8236 151.258 12.004 151.082 12.1602C150.906 12.3136 150.694 12.4343 150.447 12.5224C150.2 12.6076 149.915 12.6503 149.591 12.6503ZM150.111 11.3974C150.378 11.3974 150.614 11.3449 150.818 11.2397C151.023 11.1318 151.183 10.9869 151.3 10.8051C151.416 10.6233 151.474 10.4173 151.474 10.1872V9.49259C151.417 9.52952 151.339 9.56361 151.24 9.59486C151.143 9.62327 151.034 9.65026 150.912 9.67583C150.79 9.69855 150.667 9.71986 150.545 9.73975C150.423 9.75679 150.312 9.77242 150.213 9.78662C150 9.81787 149.814 9.86759 149.655 9.93577C149.496 10.004 149.372 10.0963 149.284 10.2128C149.196 10.3264 149.152 10.4684 149.152 10.6389C149.152 10.8861 149.241 11.075 149.42 11.2057C149.602 11.3335 149.832 11.3974 150.111 11.3974Z" fill="white"/>
</svg>
