<svg width="196" height="84" viewBox="0 0 196 84" fill="none" xmlns="http://www.w3.org/2000/svg">
<path d="M92.8789 48.2235L104.905 40.1567L92.8789 32.0898V48.2235Z" fill="#0C575E"/>
<path d="M40.8267 72.0196V68.2492L50.2804 53.3555H53.5311V58.5744H51.6072L45.6475 68.006V68.1829H59.0817V72.0196H40.8267ZM51.6957 76.0001V70.8697L51.7841 69.2001V53.3555H56.2733V76.0001H51.6957Z" fill="#0C575E"/>
<path d="M35.9383 76.2877C35.2086 76.2877 34.582 76.0297 34.0587 75.5137C33.5427 74.9903 33.2847 74.3638 33.2847 73.634C33.2847 72.9116 33.5427 72.2924 34.0587 71.7764C34.582 71.2604 35.2086 71.0024 35.9383 71.0024C36.646 71.0024 37.2652 71.2604 37.7959 71.7764C38.3266 72.2924 38.592 72.9116 38.592 73.634C38.592 74.1205 38.4667 74.5665 38.2161 74.9719C37.9728 75.3699 37.6522 75.6906 37.2541 75.9339C36.8561 76.1697 36.4175 76.2877 35.9383 76.2877Z" fill="#0C575E"/>
<path d="M22.7404 76.4977C20.8386 76.4904 19.2022 76.0223 17.8311 75.0935C16.4674 74.1647 15.417 72.8194 14.6799 71.0577C13.9501 69.296 13.5889 67.1767 13.5963 64.6999C13.5963 62.2306 13.9612 60.126 14.6909 58.3864C15.4281 56.6468 16.4785 55.3236 17.8422 54.417C19.2132 53.5029 20.846 53.0459 22.7404 53.0459C24.6348 53.0459 26.2639 53.5029 27.6276 54.417C28.9987 55.331 30.0528 56.6578 30.7899 58.3975C31.527 60.1297 31.8919 62.2306 31.8845 64.6999C31.8845 67.1841 31.516 69.307 30.7788 71.0688C30.0491 72.8305 29.0023 74.1758 27.6387 75.1046C26.275 76.0333 24.6422 76.4977 22.7404 76.4977ZM22.7404 72.5283C24.0378 72.5283 25.0734 71.8759 25.8474 70.5712C26.6214 69.2665 27.0047 67.3094 26.9974 64.6999C26.9974 62.9824 26.8204 61.5524 26.4666 60.4098C26.1202 59.2673 25.6263 58.4085 24.985 57.8336C24.351 57.2586 23.6029 56.9711 22.7404 56.9711C21.4504 56.9711 20.4185 57.6161 19.6445 58.9061C18.8705 60.1961 18.4798 62.1274 18.4724 64.6999C18.4724 66.4396 18.6457 67.8917 18.9921 69.0564C19.3459 70.2137 19.8435 71.0835 20.4848 71.6658C21.1261 72.2408 21.878 72.5283 22.7404 72.5283Z" fill="#0C575E"/>
<path d="M7.49717 73.8908H10.6498V75.1719H2.74039V73.8908H6.12695V71.1169H3.95465V70.4262C3.30853 72.1307 2.38391 73.6791 1.10281 74.8377C0.902287 74.5369 0.501247 74.0467 0.233887 73.7794C1.79349 72.4314 2.72925 70.3371 3.30853 68.1425H0.679487V66.8614H3.59817C3.73185 66.2376 3.83211 65.6138 3.92123 65.0122L5.30259 65.1793C5.20233 65.7363 5.10207 66.3044 4.97953 66.8614H10.4715V68.1425H4.67875C4.52279 68.7107 4.36683 69.29 4.16631 69.847H10.2487V71.1169H7.49717V73.8908Z" fill="#0C575E"/>
<path d="M135.497 73.8908H138.65V75.1719H130.74V73.8908H134.127V71.1169H131.955V70.4262C131.309 72.1307 130.384 73.6791 129.103 74.8377C128.902 74.5369 128.501 74.0467 128.234 73.7794C129.793 72.4314 130.729 70.3371 131.309 68.1425H128.679V66.8614H131.598C131.732 66.2376 131.832 65.6138 131.921 65.0122L133.303 65.1793C133.202 65.7363 133.102 66.3044 132.98 66.8614H138.472V68.1425H132.679C132.523 68.7107 132.367 69.29 132.166 69.847H138.249V71.1169H135.497V73.8908Z" fill="#0C575E"/>
<path d="M67.3031 0H0V16.7064H67.3031V0Z" fill="#0C575E"/>
<path d="M48.8673 12.6545C48.194 12.6545 47.6144 12.5182 47.1286 12.2454C46.6457 11.9699 46.2735 11.5807 46.0122 11.0778C45.7508 10.5721 45.6201 9.97412 45.6201 9.28378C45.6201 8.61048 45.7508 8.01958 46.0122 7.51105C46.2735 7.00253 46.6414 6.60622 47.1159 6.32213C47.5931 6.03804 48.1528 5.896 48.7948 5.896C49.2267 5.896 49.6286 5.9656 50.0008 6.1048C50.3758 6.24117 50.7025 6.44713 50.9809 6.7227C51.2622 6.99827 51.4809 7.34486 51.6372 7.76247C51.7934 8.17725 51.8715 8.66304 51.8715 9.21986V9.71844H46.3445V8.59344H50.1627C50.1627 8.33208 50.1059 8.10054 49.9923 7.89884C49.8786 7.69713 49.721 7.53946 49.5193 7.42583C49.3204 7.30935 49.0889 7.25111 48.8247 7.25111C48.5491 7.25111 48.3048 7.31503 48.0917 7.44287C47.8815 7.56787 47.7167 7.7369 47.5974 7.94997C47.4781 8.1602 47.417 8.39458 47.4142 8.6531V9.7227C47.4142 10.0466 47.4738 10.3264 47.5931 10.5622C47.7153 10.798 47.8872 10.9798 48.1088 11.1076C48.3303 11.2355 48.5931 11.2994 48.8971 11.2994C49.0988 11.2994 49.2835 11.271 49.4511 11.2142C49.6187 11.1574 49.7622 11.0721 49.8815 10.9585C50.0008 10.8449 50.0917 10.7057 50.1542 10.5409L51.8332 10.6517C51.748 11.0551 51.5732 11.4074 51.309 11.7085C51.0477 12.0068 50.7096 12.2397 50.2948 12.4074C49.8829 12.5721 49.407 12.6545 48.8673 12.6545Z" fill="white"/>
<path d="M41.2788 12.5264V5.98096H43.0388V7.123H43.1069C43.2263 6.71675 43.4265 6.40993 43.7078 6.20255C43.989 5.99232 44.3129 5.88721 44.6794 5.88721C44.7703 5.88721 44.8683 5.89289 44.9734 5.90425C45.0785 5.91562 45.1709 5.93124 45.2504 5.95113V7.56192C45.1652 7.53635 45.0473 7.51363 44.8967 7.49374C44.7461 7.47386 44.6084 7.46391 44.4834 7.46391C44.2163 7.46391 43.9777 7.52215 43.7674 7.63863C43.5601 7.75226 43.3953 7.91136 43.2731 8.1159C43.1538 8.32045 43.0941 8.55624 43.0941 8.82329V12.5264H41.2788Z" fill="white"/>
<path d="M36.8769 12.6545C36.2149 12.6545 35.6425 12.5139 35.1595 12.2326C34.6794 11.9486 34.3087 11.5537 34.0473 11.048C33.786 10.5395 33.6553 9.94997 33.6553 9.27952C33.6553 8.60338 33.786 8.01247 34.0473 7.50679C34.3087 6.99827 34.6794 6.60338 35.1595 6.32213C35.6425 6.03804 36.2149 5.896 36.8769 5.896C37.5388 5.896 38.1098 6.03804 38.5899 6.32213C39.0729 6.60338 39.445 6.99827 39.7064 7.50679C39.9678 8.01247 40.0985 8.60338 40.0985 9.27952C40.0985 9.94997 39.9678 10.5395 39.7064 11.048C39.445 11.5537 39.0729 11.9486 38.5899 12.2326C38.1098 12.5139 37.5388 12.6545 36.8769 12.6545ZM36.8854 11.2483C37.1865 11.2483 37.4379 11.163 37.6396 10.9926C37.8414 10.8193 37.9933 10.5835 38.0956 10.2852C38.2007 9.98691 38.2533 9.64742 38.2533 9.26674C38.2533 8.88605 38.2007 8.54656 38.0956 8.24827C37.9933 7.94997 37.8414 7.71418 37.6396 7.54088C37.4379 7.36759 37.1865 7.28094 36.8854 7.28094C36.5814 7.28094 36.3257 7.36759 36.1183 7.54088C35.9138 7.71418 35.759 7.94997 35.6539 8.24827C35.5516 8.54656 35.5004 8.88605 35.5004 9.26674C35.5004 9.64742 35.5516 9.98691 35.6539 10.2852C35.759 10.5835 35.9138 10.8193 36.1183 10.9926C36.3257 11.163 36.5814 11.2483 36.8854 11.2483Z" fill="white"/>
<path d="M33.0447 5.98105V7.34468H29.0049V5.98105H33.0447ZM29.9296 12.5265V5.50803C29.9296 5.0336 30.0219 4.64014 30.2066 4.32764C30.3941 4.01514 30.6498 3.78076 30.9736 3.62451C31.2975 3.46826 31.6654 3.39014 32.0773 3.39014C32.3557 3.39014 32.61 3.41144 32.8401 3.45406C33.0731 3.49667 33.2464 3.53502 33.36 3.56911L33.0361 4.93275C32.9651 4.91002 32.877 4.88872 32.7719 4.86883C32.6697 4.84894 32.5645 4.839 32.4566 4.839C32.1895 4.839 32.0035 4.9015 31.8983 5.0265C31.7932 5.14866 31.7407 5.32053 31.7407 5.54213V12.5265H29.9296Z" fill="white"/>
<path d="M25.336 12.6545C24.6627 12.6545 24.0832 12.5182 23.5974 12.2454C23.1144 11.9699 22.7423 11.5807 22.4809 11.0778C22.2195 10.5721 22.0889 9.97412 22.0889 9.28378C22.0889 8.61048 22.2195 8.01958 22.4809 7.51105C22.7423 7.00253 23.1102 6.60622 23.5846 6.32213C24.0619 6.03804 24.6215 5.896 25.2636 5.896C25.6954 5.896 26.0974 5.9656 26.4695 6.1048C26.8445 6.24117 27.1713 6.44713 27.4497 6.7227C27.7309 6.99827 27.9497 7.34486 28.1059 7.76247C28.2622 8.17725 28.3403 8.66304 28.3403 9.21986V9.71844H22.8133V8.59344H26.6315C26.6315 8.33208 26.5747 8.10054 26.461 7.89884C26.3474 7.69713 26.1897 7.53946 25.988 7.42583C25.7892 7.30935 25.5576 7.25111 25.2934 7.25111C25.0178 7.25111 24.7735 7.31503 24.5605 7.44287C24.3502 7.56787 24.1855 7.7369 24.0661 7.94997C23.9468 8.1602 23.8857 8.39458 23.8829 8.6531V9.7227C23.8829 10.0466 23.9426 10.3264 24.0619 10.5622C24.184 10.798 24.3559 10.9798 24.5775 11.1076C24.7991 11.2355 25.0619 11.2994 25.3659 11.2994C25.5676 11.2994 25.7522 11.271 25.9198 11.2142C26.0874 11.1574 26.2309 11.0721 26.3502 10.9585C26.4695 10.8449 26.5605 10.7057 26.623 10.5409L28.3019 10.6517C28.2167 11.0551 28.042 11.4074 27.7778 11.7085C27.5164 12.0068 27.1784 12.2397 26.7636 12.4074C26.3517 12.5721 25.8758 12.6545 25.336 12.6545Z" fill="white"/>
<path d="M14.7583 12.5266V3.79932H16.5736V7.08057H16.629C16.7086 6.90443 16.8236 6.72545 16.9742 6.54363C17.1276 6.35898 17.3265 6.20557 17.5708 6.08341C17.818 5.95841 18.1248 5.89591 18.4913 5.89591C18.9685 5.89591 19.4089 6.02091 19.8123 6.27091C20.2157 6.51807 20.5381 6.89165 20.7796 7.39165C21.0211 7.88881 21.1418 8.51238 21.1418 9.26238C21.1418 9.9925 21.0239 10.609 20.7881 11.1118C20.5552 11.6118 20.237 11.9911 19.8336 12.2496C19.433 12.5053 18.9842 12.6331 18.487 12.6331C18.1347 12.6331 17.835 12.5749 17.5878 12.4584C17.3435 12.3419 17.1432 12.1956 16.987 12.0195C16.8307 11.8405 16.7114 11.6601 16.629 11.4783H16.5481V12.5266H14.7583ZM16.5353 9.25386C16.5353 9.64307 16.5893 9.98256 16.6972 10.2723C16.8052 10.5621 16.9614 10.788 17.166 10.9499C17.3705 11.109 17.6191 11.1885 17.9117 11.1885C18.2072 11.1885 18.4572 11.1076 18.6617 10.9456C18.8663 10.7809 19.0211 10.5536 19.1262 10.2638C19.2342 9.97119 19.2881 9.63454 19.2881 9.25386C19.2881 8.87602 19.2356 8.54363 19.1305 8.2567C19.0253 7.96977 18.8705 7.74534 18.666 7.58341C18.4614 7.42148 18.21 7.34051 17.9117 7.34051C17.6163 7.34051 17.3663 7.41863 17.1617 7.57488C16.96 7.73113 16.8052 7.95273 16.6972 8.23966C16.5893 8.52659 16.5353 8.86466 16.5353 9.25386Z" fill="white"/>
<path d="M178.33 76.3098C177.166 76.3024 176.041 76.1071 174.958 75.7237C173.882 75.3404 172.916 74.7176 172.061 73.8551C171.206 72.9927 170.528 71.8501 170.026 70.4275C169.533 69.0048 169.286 67.2578 169.286 65.1865C169.293 63.2847 169.51 61.5856 169.938 60.0892C170.373 58.5854 170.992 57.3102 171.796 56.2635C172.606 55.2168 173.576 54.4206 174.704 53.8752C175.831 53.3223 177.096 53.0459 178.496 53.0459C180.007 53.0459 181.341 53.3408 182.499 53.9305C183.656 54.5128 184.585 55.3052 185.285 56.3077C185.993 57.3102 186.42 58.4343 186.568 59.6801H181.846C181.662 58.8914 181.275 58.2722 180.685 57.8225C180.096 57.3729 179.366 57.148 178.496 57.148C177.022 57.148 175.901 57.7893 175.135 59.0719C174.376 60.3546 173.989 62.0979 173.974 64.3019H174.129C174.468 63.6311 174.925 63.0598 175.5 62.5881C176.082 62.1089 176.742 61.744 177.479 61.4934C178.223 61.2354 179.008 61.1064 179.834 61.1064C181.176 61.1064 182.37 61.4234 183.416 62.0573C184.463 62.6839 185.289 63.5463 185.893 64.6447C186.498 65.743 186.8 66.9998 186.8 68.4151C186.8 69.9483 186.442 71.312 185.727 72.5062C185.02 73.7003 184.028 74.6365 182.753 75.3146C181.485 75.9854 180.011 76.3171 178.33 76.3098ZM178.308 72.5504C179.045 72.5504 179.705 72.3735 180.287 72.0197C180.87 71.6658 181.327 71.1867 181.658 70.5823C181.99 69.9778 182.156 69.2996 182.156 68.5478C182.156 67.7959 181.99 67.1214 181.658 66.5243C181.334 65.9273 180.884 65.4518 180.309 65.098C179.734 64.7442 179.078 64.5673 178.341 64.5673C177.788 64.5673 177.276 64.6705 176.804 64.8769C176.34 65.0833 175.931 65.3707 175.577 65.7393C175.231 66.1079 174.958 66.5354 174.759 67.0219C174.56 67.501 174.46 68.0134 174.46 68.5588C174.46 69.2886 174.626 69.9557 174.958 70.5601C175.297 71.1646 175.754 71.6474 176.329 72.0086C176.911 72.3698 177.571 72.5504 178.308 72.5504Z" fill="#0C575E"/>
<path d="M165.321 76.2877C164.591 76.2877 163.964 76.0297 163.441 75.5137C162.925 74.9903 162.667 74.3638 162.667 73.634C162.667 72.9116 162.925 72.2924 163.441 71.7764C163.964 71.2604 164.591 71.0024 165.321 71.0024C166.028 71.0024 166.648 71.2604 167.178 71.7764C167.709 72.2924 167.974 72.9116 167.974 73.634C167.974 74.1205 167.849 74.5665 167.598 74.9719C167.355 75.3699 167.034 75.6906 166.636 75.9339C166.238 76.1697 165.8 76.2877 165.321 76.2877Z" fill="#0C575E"/>
<path d="M152.123 76.4977C150.221 76.4904 148.585 76.0223 147.213 75.0935C145.85 74.1647 144.799 72.8194 144.062 71.0577C143.332 69.296 142.971 67.1767 142.979 64.6999C142.979 62.2306 143.344 60.126 144.073 58.3864C144.81 56.6468 145.861 55.3236 147.225 54.417C148.596 53.5029 150.228 53.0459 152.123 53.0459C154.017 53.0459 155.646 53.5029 157.01 54.417C158.381 55.331 159.435 56.6578 160.172 58.3975C160.909 60.1297 161.274 62.2306 161.267 64.6999C161.267 67.1841 160.898 69.307 160.161 71.0688C159.431 72.8305 158.385 74.1758 157.021 75.1046C155.657 76.0333 154.025 76.4977 152.123 76.4977ZM152.123 72.5283C153.42 72.5283 154.456 71.8759 155.23 70.5712C156.004 69.2665 156.387 67.3094 156.38 64.6999C156.38 62.9824 156.203 61.5524 155.849 60.4098C155.502 59.2673 155.009 58.4085 154.367 57.8336C153.733 57.2586 152.985 56.9711 152.123 56.9711C150.833 56.9711 149.801 57.6161 149.027 58.9061C148.253 60.1961 147.862 62.1274 147.855 64.6999C147.855 66.4396 148.028 67.8917 148.374 69.0564C148.728 70.2137 149.226 71.0835 149.867 71.6658C150.508 72.2408 151.26 72.5283 152.123 72.5283Z" fill="#0C575E"/>
<path d="M48.9479 46.3098C47.7833 46.3024 46.6591 46.1071 45.5755 45.7237C44.4993 45.3404 43.5337 44.7176 42.6786 43.8551C41.8235 42.9927 41.1454 41.8501 40.6441 40.4275C40.1503 39.0048 39.9033 37.2578 39.9033 35.1865C39.9107 33.2847 40.1281 31.5856 40.5557 30.0892C40.9906 28.5854 41.6098 27.3102 42.4133 26.2635C43.2241 25.2168 44.1934 24.4206 45.3212 23.8752C46.449 23.3223 47.7132 23.0459 49.1138 23.0459C50.6249 23.0459 51.9591 23.3408 53.1164 23.9305C54.2737 24.5128 55.2025 25.3052 55.9028 26.3077C56.6104 27.3102 57.0379 28.4343 57.1854 29.6801H52.464C52.2798 28.8914 51.8928 28.2722 51.3031 27.8225C50.7134 27.3729 49.9836 27.148 49.1138 27.148C47.6395 27.148 46.5191 27.7893 45.7525 29.0719C44.9932 30.3546 44.6062 32.0979 44.5915 34.3019H44.7463C45.0854 33.6311 45.5424 33.0598 46.1173 32.5881C46.6997 32.1089 47.3594 31.744 48.0965 31.4934C48.841 31.2354 49.6261 31.1064 50.4517 31.1064C51.7933 31.1064 52.9874 31.4234 54.0341 32.0573C55.0809 32.6839 55.9064 33.5463 56.5109 34.6447C57.1153 35.743 57.4176 36.9998 57.4176 38.4151C57.4176 39.9483 57.0601 41.312 56.345 42.5062C55.6374 43.7003 54.6459 44.6365 53.3707 45.3146C52.1028 45.9854 50.6286 46.3171 48.9479 46.3098ZM48.9258 42.5504C49.6629 42.5504 50.3227 42.3735 50.905 42.0197C51.4873 41.6658 51.9444 41.1867 52.2761 40.5823C52.6078 39.9778 52.7736 39.2996 52.7736 38.5478C52.7736 37.7959 52.6078 37.1214 52.2761 36.5243C51.9517 35.9273 51.5021 35.4518 50.9271 35.098C50.3522 34.7442 49.6961 34.5673 48.959 34.5673C48.4061 34.5673 47.8938 34.6705 47.4221 34.8769C46.9577 35.0833 46.5486 35.3707 46.1947 35.7393C45.8483 36.1079 45.5755 36.5354 45.3765 37.0219C45.1775 37.501 45.078 38.0134 45.078 38.5588C45.078 39.2886 45.2438 39.9557 45.5755 40.5601C45.9146 41.1646 46.3716 41.6474 46.9466 42.0086C47.5289 42.3698 48.1887 42.5504 48.9258 42.5504Z" fill="#0C575E"/>
<path d="M35.9383 46.2877C35.2086 46.2877 34.582 46.0297 34.0587 45.5137C33.5427 44.9903 33.2847 44.3638 33.2847 43.634C33.2847 42.9116 33.5427 42.2924 34.0587 41.7764C34.582 41.2604 35.2086 41.0024 35.9383 41.0024C36.646 41.0024 37.2652 41.2604 37.7959 41.7764C38.3266 42.2924 38.592 42.9116 38.592 43.634C38.592 44.1205 38.4667 44.5665 38.2161 44.9719C37.9728 45.3699 37.6522 45.6906 37.2541 45.9339C36.8561 46.1697 36.4175 46.2877 35.9383 46.2877Z" fill="#0C575E"/>
<path d="M22.7404 46.4977C20.8386 46.4904 19.2022 46.0223 17.8311 45.0935C16.4674 44.1647 15.417 42.8194 14.6799 41.0577C13.9501 39.296 13.5889 37.1767 13.5963 34.6999C13.5963 32.2306 13.9612 30.126 14.6909 28.3864C15.4281 26.6468 16.4785 25.3236 17.8422 24.417C19.2132 23.5029 20.846 23.0459 22.7404 23.0459C24.6348 23.0459 26.2639 23.5029 27.6276 24.417C28.9987 25.331 30.0528 26.6578 30.7899 28.3975C31.527 30.1297 31.8919 32.2306 31.8845 34.6999C31.8845 37.1841 31.516 39.307 30.7788 41.0688C30.0491 42.8305 29.0023 44.1758 27.6387 45.1046C26.275 46.0333 24.6422 46.4977 22.7404 46.4977ZM22.7404 42.5283C24.0378 42.5283 25.0734 41.8759 25.8474 40.5712C26.6214 39.2665 27.0047 37.3094 26.9974 34.6999C26.9974 32.9824 26.8204 31.5524 26.4666 30.4098C26.1202 29.2673 25.6263 28.4085 24.985 27.8336C24.351 27.2586 23.6029 26.9711 22.7404 26.9711C21.4504 26.9711 20.4185 27.6161 19.6445 28.9061C18.8705 30.1961 18.4798 32.1274 18.4724 34.6999C18.4724 36.4396 18.6457 37.8917 18.9921 39.0564C19.3459 40.2137 19.8435 41.0835 20.4848 41.6658C21.1261 42.2408 21.878 42.5283 22.7404 42.5283Z" fill="#0C575E"/>
<path d="M8.33294 41.2617H4.2V43.5231H8.33294V41.2617ZM10.4941 38.1982H4.77928C4.54534 38.8109 4.27798 39.4124 3.96606 39.9806H9.73658V45.3612H8.33294V44.8042H4.2V45.4169H2.87434V41.6404C2.37304 42.2643 1.8049 42.8213 1.14764 43.2891C0.958258 42.9772 0.534938 42.4982 0.267578 42.2308C1.68236 41.2728 2.66268 39.8023 3.34222 38.1982H0.657478V36.8948H3.79896C3.99948 36.2709 4.15544 35.6248 4.27798 35.001L5.67048 35.2572C5.5368 35.8031 5.39198 36.3489 5.22488 36.8948H10.4941V38.1982Z" fill="#0C575E"/>
<path d="M136.333 41.2617H132.2V43.5231H136.333V41.2617ZM138.494 38.1982H132.779C132.545 38.8109 132.278 39.4124 131.966 39.9806H137.737V45.3612H136.333V44.8042H132.2V45.4169H130.874V41.6404C130.373 42.2643 129.805 42.8213 129.148 43.2891C128.958 42.9772 128.535 42.4982 128.268 42.2308C129.682 41.2728 130.663 39.8023 131.342 38.1982H128.657V36.8948H131.799C131.999 36.2709 132.155 35.6248 132.278 35.001L133.67 35.2572C133.537 35.8031 133.392 36.3489 133.225 36.8948H138.494V38.1982Z" fill="#0C575E"/>
<path d="M178.087 46.3098C176.384 46.3098 174.869 46.0333 173.542 45.4805C172.223 44.9203 171.187 44.1573 170.435 43.1917C169.684 42.2261 169.308 41.1314 169.308 39.9078C169.308 38.9643 169.521 38.0981 169.949 37.3094C170.384 36.5133 170.974 35.8536 171.718 35.3302C172.463 34.7995 173.295 34.4604 174.217 34.313V34.1582C173.008 33.9149 172.028 33.3289 171.276 32.4001C170.524 31.4639 170.148 30.3767 170.148 29.1383C170.148 27.9663 170.491 26.9232 171.176 26.0092C171.862 25.0878 172.802 24.3654 173.996 23.842C175.197 23.3113 176.561 23.0459 178.087 23.0459C179.613 23.0459 180.973 23.3113 182.167 23.842C183.368 24.3727 184.312 25.0988 184.997 26.0202C185.683 26.9343 186.029 27.9736 186.037 29.1383C186.029 30.384 185.646 31.4713 184.887 32.4001C184.128 33.3289 183.155 33.9149 181.968 34.1582V34.313C182.875 34.4604 183.696 34.7995 184.434 35.3302C185.178 35.8536 185.768 36.5133 186.203 37.3094C186.645 38.0981 186.87 38.9643 186.877 39.9078C186.87 41.1314 186.49 42.2261 185.738 43.1917C184.986 44.1573 183.947 44.9203 182.62 45.4805C181.301 46.0333 179.79 46.3098 178.087 46.3098ZM178.087 42.7936C178.846 42.7936 179.51 42.6573 180.077 42.3845C180.645 42.1044 181.087 41.7211 181.404 41.2346C181.728 40.7407 181.89 40.1731 181.89 39.5318C181.89 38.8758 181.725 38.2971 181.393 37.7959C181.061 37.2873 180.612 36.8892 180.044 36.6017C179.476 36.3069 178.824 36.1595 178.087 36.1595C177.357 36.1595 176.705 36.3069 176.13 36.6017C175.555 36.8892 175.101 37.2873 174.77 37.7959C174.445 38.2971 174.283 38.8758 174.283 39.5318C174.283 40.1731 174.442 40.7407 174.759 41.2346C175.076 41.7211 175.522 42.1044 176.097 42.3845C176.672 42.6573 177.335 42.7936 178.087 42.7936ZM178.087 32.6765C178.721 32.6765 179.285 32.5475 179.779 32.2895C180.272 32.0315 180.659 31.674 180.94 31.217C181.22 30.76 181.36 30.2329 181.36 29.6359C181.36 29.0461 181.22 28.5302 180.94 28.0879C180.659 27.6382 180.276 27.2881 179.79 27.0375C179.303 26.7795 178.736 26.6505 178.087 26.6505C177.446 26.6505 176.878 26.7795 176.384 27.0375C175.89 27.2881 175.503 27.6382 175.223 28.0879C174.95 28.5302 174.814 29.0461 174.814 29.6359C174.814 30.2329 174.954 30.76 175.234 31.217C175.514 31.674 175.901 32.0315 176.395 32.2895C176.889 32.5475 177.453 32.6765 178.087 32.6765Z" fill="#0C575E"/>
<path d="M165.321 46.2877C164.591 46.2877 163.964 46.0297 163.441 45.5137C162.925 44.9903 162.667 44.3638 162.667 43.634C162.667 42.9116 162.925 42.2924 163.441 41.7764C163.964 41.2604 164.591 41.0024 165.321 41.0024C166.028 41.0024 166.648 41.2604 167.178 41.7764C167.709 42.2924 167.974 42.9116 167.974 43.634C167.974 44.1205 167.849 44.5665 167.598 44.9719C167.355 45.3699 167.034 45.6906 166.636 45.9339C166.238 46.1697 165.8 46.2877 165.321 46.2877Z" fill="#0C575E"/>
<path d="M152.123 46.4977C150.221 46.4904 148.585 46.0223 147.213 45.0935C145.85 44.1647 144.799 42.8194 144.062 41.0577C143.332 39.296 142.971 37.1767 142.979 34.6999C142.979 32.2306 143.344 30.126 144.073 28.3864C144.81 26.6468 145.861 25.3236 147.225 24.417C148.596 23.5029 150.228 23.0459 152.123 23.0459C154.017 23.0459 155.646 23.5029 157.01 24.417C158.381 25.331 159.435 26.6578 160.172 28.3975C160.909 30.1297 161.274 32.2306 161.267 34.6999C161.267 37.1841 160.898 39.307 160.161 41.0688C159.431 42.8305 158.385 44.1758 157.021 45.1046C155.657 46.0333 154.025 46.4977 152.123 46.4977ZM152.123 42.5283C153.42 42.5283 154.456 41.8759 155.23 40.5712C156.004 39.2665 156.387 37.3094 156.38 34.6999C156.38 32.9824 156.203 31.5524 155.849 30.4098C155.502 29.2673 155.009 28.4085 154.367 27.8336C153.733 27.2586 152.985 26.9711 152.123 26.9711C150.833 26.9711 149.801 27.6161 149.027 28.9061C148.253 30.1961 147.862 32.1274 147.855 34.6999C147.855 36.4396 148.028 37.8917 148.374 39.0564C148.728 40.2137 149.226 41.0835 149.867 41.6658C150.508 42.2408 151.26 42.5283 152.123 42.5283Z" fill="#0C575E"/>
<path d="M195.303 0H128V16.7064H195.303V0Z" fill="#0C575E"/>
<path d="M171.08 12.5264V5.98096H172.84V7.123H172.908C173.027 6.71675 173.227 6.40993 173.509 6.20255C173.79 5.99232 174.114 5.88721 174.48 5.88721C174.571 5.88721 174.669 5.89289 174.774 5.90425C174.879 5.91562 174.972 5.93124 175.051 5.95113V7.56192C174.966 7.53635 174.848 7.51363 174.697 7.49374C174.547 7.47386 174.409 7.46391 174.284 7.46391C174.017 7.46391 173.778 7.52215 173.568 7.63863C173.361 7.75226 173.196 7.91136 173.074 8.1159C172.955 8.32045 172.895 8.55624 172.895 8.82329V12.5264H171.08Z" fill="white"/>
<path d="M166.891 12.6545C166.217 12.6545 165.638 12.5182 165.152 12.2454C164.669 11.9699 164.297 11.5807 164.036 11.0778C163.774 10.5721 163.644 9.97412 163.644 9.28378C163.644 8.61048 163.774 8.01958 164.036 7.51105C164.297 7.00253 164.665 6.60622 165.139 6.32213C165.617 6.03804 166.176 5.896 166.818 5.896C167.25 5.896 167.652 5.9656 168.024 6.1048C168.399 6.24117 168.726 6.44713 169.004 6.7227C169.286 6.99827 169.504 7.34486 169.661 7.76247C169.817 8.17725 169.895 8.66304 169.895 9.21986V9.71844H164.368V8.59344H168.186C168.186 8.33208 168.129 8.10054 168.016 7.89884C167.902 7.69713 167.744 7.53946 167.543 7.42583C167.344 7.30935 167.112 7.25111 166.848 7.25111C166.573 7.25111 166.328 7.31503 166.115 7.44287C165.905 7.56787 165.74 7.7369 165.621 7.94997C165.502 8.1602 165.44 8.39458 165.438 8.6531V9.7227C165.438 10.0466 165.497 10.3264 165.617 10.5622C165.739 10.798 165.911 10.9798 166.132 11.1076C166.354 11.2355 166.617 11.2994 166.921 11.2994C167.122 11.2994 167.307 11.271 167.475 11.2142C167.642 11.1574 167.786 11.0721 167.905 10.9585C168.024 10.8449 168.115 10.7057 168.178 10.5409L169.857 10.6517C169.771 11.0551 169.597 11.4074 169.332 11.7085C169.071 12.0068 168.733 12.2397 168.318 12.4074C167.906 12.5721 167.43 12.6545 166.891 12.6545Z" fill="white"/>
<path d="M162.796 5.98127V7.3449H158.854V5.98127H162.796ZM159.749 4.41309H161.564V10.5154C161.564 10.683 161.59 10.8137 161.641 10.9074C161.692 10.9983 161.763 11.0622 161.854 11.0992C161.948 11.1361 162.056 11.1546 162.178 11.1546C162.263 11.1546 162.348 11.1475 162.434 11.1333C162.519 11.1162 162.584 11.1034 162.63 11.0949L162.915 12.4458C162.824 12.4742 162.696 12.5068 162.532 12.5438C162.367 12.5835 162.167 12.6077 161.931 12.6162C161.493 12.6333 161.11 12.575 160.78 12.4415C160.453 12.308 160.199 12.1006 160.017 11.8193C159.836 11.5381 159.746 11.183 159.749 10.754V4.41309Z" fill="white"/>
<path d="M158.205 5.98105V7.34468H154.166V5.98105H158.205ZM155.09 12.5265V5.50803C155.09 5.0336 155.183 4.64014 155.367 4.32764C155.555 4.01514 155.81 3.78076 156.134 3.62451C156.458 3.46826 156.826 3.39014 157.238 3.39014C157.516 3.39014 157.771 3.41144 158.001 3.45406C158.234 3.49667 158.407 3.53502 158.521 3.56911L158.197 4.93275C158.126 4.91002 158.038 4.88872 157.933 4.86883C157.83 4.84894 157.725 4.839 157.617 4.839C157.35 4.839 157.164 4.9015 157.059 5.0265C156.954 5.14866 156.901 5.32053 156.901 5.54213V12.5265H155.09Z" fill="white"/>
<path d="M149.591 12.6503C149.173 12.6503 148.801 12.5778 148.474 12.4329C148.148 12.2852 147.889 12.0679 147.699 11.7809C147.511 11.4912 147.417 11.1304 147.417 10.6986C147.417 10.3349 147.484 10.0295 147.618 9.78236C147.751 9.5352 147.933 9.33634 148.163 9.18577C148.393 9.0352 148.655 8.92156 148.947 8.84486C149.243 8.76816 149.552 8.71418 149.876 8.68293C150.257 8.64316 150.564 8.60622 150.797 8.57213C151.03 8.5352 151.199 8.48122 151.304 8.4102C151.409 8.33918 151.462 8.23406 151.462 8.09486V8.06929C151.462 7.79941 151.376 7.5906 151.206 7.44287C151.038 7.29514 150.8 7.22128 150.49 7.22128C150.163 7.22128 149.903 7.29372 149.71 7.43861C149.517 7.58066 149.389 7.75963 149.327 7.97554L147.648 7.83918C147.733 7.44145 147.9 7.0977 148.15 6.80793C148.4 6.51531 148.723 6.29088 149.118 6.13463C149.515 5.97554 149.976 5.896 150.498 5.896C150.862 5.896 151.21 5.93861 151.542 6.02384C151.878 6.10906 152.175 6.24117 152.433 6.42014C152.694 6.59912 152.9 6.82924 153.051 7.11049C153.202 7.38889 153.277 7.7227 153.277 8.11191V12.5267H151.555V11.619H151.504C151.399 11.8236 151.258 12.004 151.082 12.1602C150.906 12.3136 150.694 12.4343 150.447 12.5224C150.2 12.6076 149.915 12.6503 149.591 12.6503ZM150.111 11.3974C150.378 11.3974 150.614 11.3449 150.818 11.2397C151.023 11.1318 151.183 10.9869 151.3 10.8051C151.416 10.6233 151.474 10.4173 151.474 10.1872V9.49259C151.417 9.52952 151.339 9.56361 151.24 9.59486C151.143 9.62327 151.034 9.65026 150.912 9.67583C150.79 9.69855 150.667 9.71986 150.545 9.73975C150.423 9.75679 150.312 9.77242 150.213 9.78662C150 9.81787 149.814 9.86759 149.655 9.93577C149.496 10.004 149.372 10.0963 149.284 10.2128C149.196 10.3264 149.152 10.4684 149.152 10.6389C149.152 10.8861 149.241 11.075 149.42 11.2057C149.602 11.3335 149.832 11.3974 150.111 11.3974Z" fill="white"/>
</svg>
